<svg id="b6c881ec-80a2-4aeb-a87c-bea63cd39014" data-name="Layer 1" xmlns="http://www.w3.org/2000/svg" width="888" height="460.526"><path d="M369.701 672.443l-21.874-34.714 21.884 38.496.012 3.955q2.34-.027 4.635-.18l-1.785-50.811.024-.393-.04-.075-.17-4.801 22.871-38.047-22.895 34.45-.068 1.018-1.348-38.39 19.662-39.365-19.816 32.619-.922-79.573-.004-.265-.003.26-.449 62.738-18.788-25.102 18.805 30.506.087 34.362-17.433-33.187 17.443 38.239.048 19.107-25.323-46.208 25.343 52.873zm187.712 0l-21.875-34.714 21.885 38.496.012 3.955q2.34-.027 4.634-.18l-1.784-50.811.023-.393-.04-.075-.17-4.801 22.872-38.047-22.895 34.45-.069 1.018-1.348-38.39 19.663-39.365-19.816 32.619-.922-79.573-.004-.265-.003.26-.45 62.738-18.788-25.102 18.805 30.506.088 34.362-17.433-33.187 17.442 38.239.049 19.107-25.323-46.208 25.342 52.873zm-375.602 2.233l-15.795-25.067 15.803 27.798.008 2.856q1.69-.02 3.347-.13l-1.289-36.691.017-.284-.029-.054-.122-3.467 16.515-27.473-16.533 24.877-.049.734-.973-27.722 14.198-28.424-14.31 23.553-.665-57.459-.003-.191-.002.188-.324 45.303-13.567-18.127 13.579 22.029.063 24.812-12.588-23.964 12.595 27.612.035 13.797-18.286-33.366 18.3 38.18zm832.134-2.233l-21.874-34.714 21.884 38.496.012 3.955q2.34-.027 4.634-.18l-1.784-50.811.024-.393-.04-.075-.17-4.801 22.871-38.047-22.895 34.45-.069 1.018-1.347-38.39 19.662-39.365-19.816 32.619-.922-79.573-.004-.265-.003.26-.449 62.738-18.788-25.102 18.805 30.506.087 34.362-17.433-33.187 17.442 38.239.049 19.107-25.323-46.208 25.343 52.873z" transform="translate(-156 -219.737)" fill="#e2e2e2"/><path transform="rotate(-180 401.714 507.664)" fill="#6c3bb3" d="M420.714 615.033h118v5h-118z"/><path transform="rotate(-180 395.714 502.664)" fill="#6c3bb3" d="M414.714 610.033h118v5h-118z"/><path transform="rotate(-180 402.714 497.664)" fill="#6c3bb3" d="M421.714 605.033h118v5h-118z"/><path transform="rotate(-180 414.714 492.664)" fill="#6c3bb3" d="M433.714 600.033h118v5h-118z"/><path transform="rotate(-180 257.361 482.613)" fill="#3f3d56" d="M333.313 577.937h4.097v29.088h-4.097z"/><path transform="rotate(-112.092 257.9 491.351)" fill="#3f3d56" d="M407.831 466.888h4.097v163.621h-4.097z"/><path transform="rotate(-180 197.34 533.62)" fill="#3f3d56" d="M257.519 636.524h35.644v13.93h-35.644z"/><path transform="rotate(-180 270.677 546.73)" fill="#3f3d56" d="M260.797 648.815h175.76v15.568h-175.76z"/><path fill="#e2e2e2" d="M133.68 436.862h42.199v-53.056h-31.547l-10.652 26.759v26.297z"/><path transform="rotate(-180 238.31 505.966)" fill="#fff" d="M307.297 606.821h18.027v18.027h-18.027z"/><path fill="#fff" d="M137.777 405.315h11.472v-18.026h-4.917l-6.555 18.026z"/><path transform="rotate(-180 244.456 529.114)" fill="#3f3d56" d="M320.408 635.09h4.097v7.784h-4.097z"/><path d="M297.67 618.497h.204a3.892 3.892 0 013.892 3.892 3.892 3.892 0 01-3.892 3.893h-.205v-7.785z" transform="rotate(180 221.718 512.52)" fill="#3f3d56"/><path d="M450.077 648.815h.205a3.892 3.892 0 013.892 3.892 3.892 3.892 0 01-3.892 3.892h-.205v-7.784z" transform="rotate(180 374.125 542.838)" fill="#3f3d56"/><path d="M273.292 648.756a20.27 20.27 0 00-15.755 7.843h-8.007l7.784-21.684 36.258-7.15-1.024 28.834h-3.5a20.27 20.27 0 00-15.756-7.843z" transform="translate(-156 -219.737)" fill="#e2e2e2"/><circle cx="116.883" cy="441.983" r="17.822" fill="#3f3d56"/><circle cx="116.883" cy="441.983" r="9.38" fill="#e2e2e2"/><circle cx="277.894" cy="444.032" r="15.568" fill="#3f3d56"/><circle cx="277.894" cy="444.032" r="8.194" fill="#e2e2e2"/><path transform="rotate(-180 256.952 517.335)" fill="#3f3d56" d="M330.65 596.169h8.604v62.069h-8.604z"/><path transform="rotate(-180 314.514 538.946)" fill="#3f3d56" d="M330.65 646.971h123.729v3.687H330.65z"/><path transform="rotate(-180 223.357 516.823)" fill="#3f3d56" d="M299.308 625.872h4.097v1.639h-4.097z"/><path d="M480.394 620.002a.41.41 0 01-.104-.319l5.65-53.432a.41.41 0 01.406-.366h.002a.41.41 0 01.407.363l6.111 53.321a.41.41 0 01-.403.456l-11.762.111h-.003a.41.41 0 01-.304-.134zm5.97-49.967l-5.21 49.277L492 619.21z" transform="translate(-156 -219.737)" fill="#3f3d56"/><path d="M255.88 635.705h.205a3.892 3.892 0 013.892 3.892 3.892 3.892 0 01-3.892 3.892h-.205v-7.784z" transform="rotate(20.717 780.996 103.007)" fill="#3f3d56"/><path transform="rotate(-180 408.54 436.112)" fill="#3f3d56" d="M484.491 516.073h4.097v59.816h-4.097z"/><circle cx="179.361" cy="359.02" r="5.736" fill="#3f3d56"/><path transform="rotate(-180 324.714 534.664)" fill="#6c3bb3" d="M343.714 642.033h118v5h-118z"/><path transform="rotate(-180 331.714 529.664)" fill="#6c3bb3" d="M350.714 637.033h118v5h-118z"/><path transform="rotate(-180 326.714 525.664)" fill="#6c3bb3" d="M345.714 633.033h118v5h-118z"/><path transform="rotate(-180 333.714 520.664)" fill="#6c3bb3" d="M352.714 628.033h118v5h-118z"/><path d="M538.337 341.98a15.596 15.596 0 0110.237 3.814 15.606 15.606 0 016.887-.303 15.66 15.66 0 0128.555 8.887h-60.997a15.665 15.665 0 0115.318-12.399zm-91.765 49.347a14.744 14.744 0 019.677 3.606 14.755 14.755 0 016.511-.286 14.805 14.805 0 0126.996 8.402H432.09a14.81 14.81 0 0114.482-11.722zm-91.748-81.392a15.34 15.34 0 0110.07 3.752 15.351 15.351 0 016.774-.297 15.404 15.404 0 0128.088 8.741h-60a15.409 15.409 0 0115.068-12.196zm396.175 154.988v124.905h48.574v-126.64l-11.276.403v-25.558h-8.179l-1.347-56.604c3.3-2.15 5.623-7.258 5.623-13.222a21.669 21.669 0 00-.594-5.084 10.4 10.4 0 001.12-12.667 10.407 10.407 0 1013.487-15.852 10.41 10.41 0 10-14.013-9.767c0 .153.005.304.011.455a10.415 10.415 0 00-13.338 8.382 10.409 10.409 0 10-7.485 19.127c-.002.076-.006.15-.006.227a50.6 50.6 0 003.676 8.435 21.026 21.026 0 00-1.074 6.744c0 5.964 2.323 11.072 5.623 13.222l-1.348 56.604h-8.178v26.487zm30.332-119.269h.027c.15 0 .299-.004.447-.01q.141.461.322.903a10.453 10.453 0 00-.796-.893z" transform="translate(-156 -219.737)" fill="#e2e2e2"/><path transform="rotate(-180 719.983 483.574)" fill="#3f3d56" d="M724.254 508.148h147.458v170.589H724.254z"/><path transform="rotate(-180 719.983 551.52)" fill="#e2e2e2" d="M778.105 644.041h39.756v34.696h-39.756z"/><path d="M675.11 283.692c-.002.126-.009.25-.009.377a17.293 17.293 0 005.26 12.438 17.33 17.33 0 00.867 1.62 35.03 35.03 0 00-1.79 11.242c0 13.174 6.796 23.853 15.18 23.853s15.18-10.68 15.18-23.853a36.105 36.105 0 00-.99-8.474 17.334 17.334 0 001.867-21.112 17.346 17.346 0 1022.478-26.42 17.35 17.35 0 10-23.356-16.278c0 .254.009.506.02.758a17.36 17.36 0 00-22.23 13.97 17.348 17.348 0 10-12.476 31.879zm29.627-11.91c.25 0 .499-.01.747-.02q.233.77.536 1.506a17.387 17.387 0 00-1.328-1.488z" transform="translate(-156 -219.737)" fill="#e2e2e2"/><path d="M685.941 451.767h17.35l-.62-26.02v-.01l-2.27-95.41a11.095 11.095 0 01-11.57 0l-2.27 95.41v.01z" transform="translate(-156 -219.737)" fill="#6c3bb3"/><path fill="#6c3bb3" d="M498.141 250.82V459h80.951V247.93l-18.791.67v-42.59h-43.37v44.14l-18.79.67z"/><path d="M881.841 283.692c-.003.126-.01.25-.01.377a17.293 17.293 0 005.26 12.438 17.33 17.33 0 00.868 1.62 35.03 35.03 0 00-1.79 11.242c0 13.174 6.796 23.853 15.18 23.853s15.179-10.68 15.179-23.853a36.106 36.106 0 00-.99-8.474 17.334 17.334 0 001.867-21.112 17.346 17.346 0 1022.48-26.42 17.35 17.35 0 10-23.357-16.278c0 .254.008.506.019.758a17.36 17.36 0 00-22.23 13.97 17.348 17.348 0 10-12.476 31.879zm29.627-11.91c.25 0 .499-.01.746-.02q.234.77.536 1.506a17.385 17.385 0 00-1.327-1.488z" transform="translate(-156 -219.737)" fill="#e2e2e2"/><path d="M892.674 451.767h17.348l-2.891-121.436a17.1 17.1 0 01-11.565 0z" transform="translate(-156 -219.737)" fill="#6c3bb3"/><path fill="#6c3bb3" d="M704.871 250.82V459h80.96V247.93l-6.65.24-12.15.43v-42.59h-43.37v44.14l-18.79.67z"/><path transform="rotate(-180 751.983 428.869)" fill="#fff" d="M819.983 528.737h20v20h-20z"/><path transform="rotate(-180 719.983 428.869)" fill="#fff" d="M787.983 528.737h20v20h-20z"/><path transform="rotate(-180 687.983 428.869)" fill="#fff" d="M755.983 528.737h20v20h-20z"/><path transform="rotate(-180 751.983 460.869)" fill="#fff" d="M819.983 560.737h20v20h-20z"/><path transform="rotate(-180 719.983 460.869)" fill="#fff" d="M787.983 560.737h20v20h-20z"/><path transform="rotate(-180 687.983 460.869)" fill="#fff" d="M755.983 560.737h20v20h-20z"/><path transform="rotate(-180 751.983 492.869)" fill="#fff" d="M819.983 592.737h20v20h-20z"/><path transform="rotate(-180 719.983 492.869)" fill="#fff" d="M787.983 592.737h20v20h-20z"/><path transform="rotate(-180 687.983 492.869)" fill="#fff" d="M755.983 592.737h20v20h-20z"/><path transform="rotate(-180 616.618 420.869)" fill="#fff" d="M684.618 520.737h20v20h-20z"/><path transform="rotate(-180 616.618 452.869)" fill="#fff" d="M684.618 552.737h20v20h-20z"/><path transform="rotate(-180 616.618 484.869)" fill="#fff" d="M684.618 584.737h20v20h-20z"/><path transform="rotate(-180 616.618 516.869)" fill="#fff" d="M684.618 616.737h20v20h-20z"/><path transform="rotate(-180 823.181 420.869)" fill="#fff" d="M891.181 520.737h20v20h-20z"/><path transform="rotate(-180 823.181 452.869)" fill="#fff" d="M891.181 552.737h20v20h-20z"/><path transform="rotate(-180 823.181 484.869)" fill="#fff" d="M891.181 584.737h20v20h-20z"/><path transform="rotate(-180 823.181 516.869)" fill="#fff" d="M891.181 616.737h20v20h-20z"/><path fill="#3f3d56" d="M0 458.295h888v2H0z"/></svg>