<svg version="1.1" id="Capa_1" xmlns="http://www.w3.org/2000/svg" x="0" y="0" viewBox="0 0 512 512" xml:space="preserve"><path d="M391 15v160c0 4.69-2.2 9.12-5.94 11.95l-55 41.71-65 49.29c-2.68 2.03-5.87 3.05-9.06 3.05s-6.38-1.02-9.06-3.05l-65-49.29-55-41.71A14.995 14.995 0 01121 175V15c0-8.28 6.72-15 15-15h240c8.28 0 15 6.72 15 15z" fill="#b34117"/><path d="M376 0H256v281c3.19 0 6.38-1.02 9.06-3.05l65-49.29 55-41.71c3.74-2.83 5.94-7.26 5.94-11.95V15c0-8.28-6.72-15-15-15z" fill="#b34117"/><path d="M330.06 0v228.66l-65 49.29c-2.68 2.03-5.87 3.05-9.06 3.05s-6.38-1.02-9.06-3.05l-65-49.29V0h148.12z" fill="#29b297"/><path d="M256 0v281c3.19 0 6.38-1.02 9.06-3.05l65-49.29V0H256z" fill="#259982"/><path d="M256 251c-71.958 0-130.5 58.542-130.5 130.5S184.042 512 256 512s130.5-58.542 130.5-130.5S327.958 251 256 251z" fill="#fad557"/><path d="M256 251v261c71.958 0 130.5-58.542 130.5-130.5S327.958 251 256 251z" fill="#fcb12b"/><path d="M323.233 364.973a15 15 0 00-10.819-9.963l-28.428-6.711-15.167-24.963a15 15 0 00-25.638 0l-15.167 24.963-28.428 6.711a14.999 14.999 0 00-7.923 24.383l19.053 22.14-2.401 29.109a15 15 0 0020.742 15.069L256 434.432l26.942 11.279a15.001 15.001 0 0020.742-15.069l-2.401-29.109 19.053-22.14a14.999 14.999 0 002.897-14.42z" fill="#fda429"/><path d="M323.233 364.973a15 15 0 00-10.819-9.963l-28.428-6.711-15.167-24.963A15 15 0 00256 316.125v118.307l26.942 11.279a15.001 15.001 0 0020.742-15.069l-2.401-29.109 19.053-22.14a14.999 14.999 0 002.897-14.42z" fill="#e28117"/></svg>