<svg id="b582dbfc-ed60-4217-aa06-1e10ec960023" data-name="Layer 1" xmlns="http://www.w3.org/2000/svg" width="842" height="678.376"><ellipse cx="426" cy="645.876" rx="416" ry="32.5" fill="#3f3d56"/><path fill="#a0616a" d="M779.369 585.5l3.899 28.593-27.293 2.599 3.899-35.091 19.495 3.899z"/><path d="M829.702 303.812s2.599 35.091 2.599 36.391-18.196 90.977-18.196 90.977-25.993 49.387 0 48.088 18.196-46.788 18.196-46.788l27.293-75.381-11.697-53.287z" transform="translate(-179 -110.812)" fill="#a0616a"/><path fill="#a0616a" d="M693.591 585.5l-3.899 28.593 27.293 2.599-3.899-35.091-19.495 3.899z"/><path d="M842.698 428.58l-6.498 9.098s-3.9 38.99 0 51.987 11.697 72.781 11.697 76.68 1.3 6.499 0 7.798-5.199 1.3-2.6 3.9 2.6 10.397 2.6 10.397v6.498l16.896 96.175s-10.398 11.697-2.6 11.697 36.39 0 35.091-12.996l-2.6-1.3s-3.898-85.778-2.598-89.677 0-11.697 0-11.697-2.6-3.899 0-5.199 2.599-11.697 2.599-11.697l11.697-79.28s10.397 53.287 16.896 58.486 5.198 18.195 5.198 18.195l5.199 114.37s-5.199 12.997 0 15.597 27.293 11.697 28.593-1.3 7.798-126.068 7.798-131.266-1.3-7.798 0-11.697-1.3-3.9 0-3.9-2.6-3.898-2.6-6.498v-63.683s1.3-12.997 2.6-15.596-1.3-5.2 0-9.098-2.6-16.896-2.6-16.896l-58.485-15.596zm45.489 291.126s6.498-6.498-2.6-6.498a42.303 42.303 0 00-16.895 3.899l-6.499 23.394s-26.643 21.444 3.25 18.845 25.343-.65 25.343-.65 9.098-2.6 10.397-5.198-2.6-40.29-2.6-40.29-3.898 10.397-10.396 6.498zm55.885 0s-6.498-6.498 2.6-6.498a42.303 42.303 0 0116.895 3.899l6.499 23.394s26.643 21.444-3.25 18.845-29.242-.65-29.242-.65-9.098-2.6-10.397-5.199 6.498-40.29 6.498-40.29 3.899 10.398 10.397 6.5z" transform="translate(-179 -110.812)" fill="#2f2e41"/><circle cx="680.594" cy="56.536" r="33.791" fill="#a0616a"/><path d="M847.897 192.041s5.199 25.993 5.199 29.892 22.094 15.596 22.094 15.596l24.694-31.192s-15.596-22.094-15.596-27.293z" transform="translate(-179 -110.812)" fill="#a0616a"/><path d="M867.392 225.832s-11.328-3.015-14.762-8.005c0 0-35.925 35.298-35.925 41.797l28.593 50.687s0 18.195 2.599 19.495 0 0 0 5.198-7.798 38.99-5.199 44.19 5.199 1.299 2.6 9.097-9.098 49.387-9.098 49.387 23.394-7.798 57.185 5.199 74.081-5.199 74.081-5.199-10.397-23.394-7.798-31.192-6.498-22.094-6.498-22.094l-6.498-119.57s9.097-53.286 2.599-55.885l-12.997-5.199-41.62-5.115s-10.366 25.91-27.262 27.21z" transform="translate(-179 -110.812)" fill="#d0cde1"/><path d="M829.702 250.526l-12.997 9.098s-6.499 19.495 0 28.592 9.098 22.095 9.098 22.095l25.993-2.6z" transform="translate(-179 -110.812)" fill="#d0cde1"/><path d="M833.794 131.636l-5.861-2.347s12.256-13.493 29.307-12.32l-4.795-5.28s11.723-4.693 22.38 7.627c5.602 6.476 12.084 14.089 16.125 22.664h6.277l-2.62 5.769 9.17 5.768-9.412-1.036a31.921 31.921 0 01-.89 14.94l.252 4.56s-10.91-16.88-10.91-19.226v5.867s-5.86-5.28-5.86-8.8l-3.198 4.106-1.598-6.453-19.716 6.453 3.197-5.28-12.256 1.76 4.796-6.453s-13.855 7.627-14.388 14.08c-.532 6.453-7.46 14.666-7.46 14.666l-3.197-5.866s-4.796-26.4 10.657-35.2z" transform="translate(-179 -110.812)" fill="#2f2e41"/><path fill="#f2f2f2" d="M146.169 282.832h516.463V645.63H146.169z"/><path fill="#3f3d56" d="M189.645 421.256h129.678V647.63H189.645z"/><path fill="#f2f2f2" d="M213.632 434.837h34.932V467.4h-34.932zm46.773 0h34.932V467.4h-34.932zm-46.773 44.404h34.932v33.748h-34.932zm46.773 0h34.932v33.748h-34.932z"/><circle cx="302.832" cy="549.684" r="8.245" fill="#6c3bb3"/><path fill="#3f3d56" d="M362.799 399.767h256.357v215.13H362.799zm353.803-48.633H92.199l41.632-87.042 9.317-19.489 12.189-25.486 9.317-19.489 10.801-22.577h491.952l6.379 22.577 5.509 19.489 7.204 25.486 5.509 19.489 24.594 87.042z"/><path fill="#6c3bb3" d="M371.794 488.967h8.995v55.469h-8.995z"/><path fill="#f2f2f2" d="M371.794 497.213h8.995v6.746h-8.995zm0 32.232h8.995v6.746h-8.995z"/><path fill="#6c3bb3" d="M385.286 488.967h21.738v55.469h-21.738z"/><path fill="#f2f2f2" d="M385.286 497.213h21.738v6.746h-21.738zm0 32.232h21.738v6.746h-21.738z"/><path fill="#6c3bb3" d="M412.271 488.967h8.995v55.469h-8.995z"/><path fill="#f2f2f2" d="M412.271 497.213h8.995v6.746h-8.995zm0 32.232h8.995v6.746h-8.995z"/><path fill="#6c3bb3" d="M425.764 488.967h8.995v55.469h-8.995z"/><path fill="#f2f2f2" d="M425.764 497.213h8.995v6.746h-8.995zm0 32.232h8.995v6.746h-8.995z"/><path transform="rotate(-20.654 234.438 1063.276)" fill="#6c3bb3" d="M623.503 599.779h8.995v55.469h-8.995z"/><path transform="rotate(-20.654 228.753 1048.196)" fill="#f2f2f2" d="M617.819 609.06h8.995v6.746h-8.995z"/><path transform="rotate(-20.654 240.123 1078.356)" fill="#f2f2f2" d="M629.188 639.221h8.995v6.746h-8.995z"/><path fill="#6c3bb3" d="M589.173 488.967h21.738v55.469h-21.738z"/><path fill="#f2f2f2" d="M589.173 497.213h21.738v6.746h-21.738zm0 32.232h21.738v6.746h-21.738z"/><path fill="#6c3bb3" d="M574.931 488.967h8.995v55.469h-8.995z"/><path fill="#f2f2f2" d="M574.931 497.213h8.995v6.746h-8.995zm0 32.232h8.995v6.746h-8.995z"/><path fill="#6c3bb3" d="M561.438 488.967h8.995v55.469h-8.995z"/><path fill="#f2f2f2" d="M561.438 497.213h8.995v6.746h-8.995zm0 32.232h8.995v6.746h-8.995z"/><path transform="rotate(-69.346 556.599 701.493)" fill="#6c3bb3" d="M698.462 623.016h55.469v8.995h-55.469z"/><path transform="rotate(-69.346 562.284 686.413)" fill="#f2f2f2" d="M728.508 607.936h6.746v8.995h-6.746z"/><path transform="rotate(-69.346 550.915 716.573)" fill="#f2f2f2" d="M717.138 638.096h6.746v8.995h-6.746z"/><path fill="#f2f2f2" d="M362.799 544.437h256.357v5.247H362.799z"/><path fill="#6c3bb3" d="M474.487 488.967h47.224v55.469h-47.224z"/><path fill="#f2f2f2" d="M486.105 500.961h23.987v10.494h-23.987zm2.624-101.194h4.497v47.973h-4.497z"/><circle cx="490.977" cy="447.74" r="7.496" fill="#f2f2f2"/><path fill="#6c3bb3" d="M679.295 219.117H155.337l9.317-19.489h509.132l5.509 19.489zm12.713 44.975H133.831l9.317-19.489h543.351l5.509 19.489z"/><path d="M925.877 262.223s-7.526 19.353-5.954 38.501a20.293 20.293 0 003.355 9.587l-92.205 43.774s-41.661 4.313-31.264 22.509 48.088-9.098 48.088-9.098 98.775-14.296 106.573-28.593 12.996-74.08 12.996-74.08z" transform="translate(-179 -110.812)" fill="#a0616a"/><path d="M929.776 208.937h19.495s14.296 2.599 18.195 28.592 7.798 32.492 3.9 32.492-50.688-1.3-50.688-2.6 9.098-58.484 9.098-58.484z" transform="translate(-179 -110.812)" fill="#d0cde1"/><circle cx="100" cy="386.376" r="100" fill="#6c3bb3"/><circle cx="100" cy="386.376" r="86" opacity=".1"/><path d="M274.88 547.936V535.42c-6.328-.123-12.874-2.355-16.692-5.453l2.618-8.303a26.681 26.681 0 0015.71 5.328c7.745 0 12.982-5.08 12.982-12.145 0-6.816-4.255-11.03-12.328-14.748-11.128-4.957-18-10.658-18-21.44 0-10.286 6.436-18.094 16.473-19.953v-12.517h6.764v12.022a26.543 26.543 0 0114.182 4.337l-2.728 8.18a24.107 24.107 0 00-13.745-4.214c-8.4 0-11.564 5.7-11.564 10.658 0 6.444 4.036 9.666 13.527 14.128 11.237 5.206 16.91 11.65 16.91 22.68 0 9.79-6 18.962-17.237 21.067v12.89z" transform="translate(-179 -110.812)" fill="#f2f2f2"/></svg>