<svg id="a1b0a4cf-944a-4145-95be-ec0eea83b7fc" data-name="Layer 1" xmlns="http://www.w3.org/2000/svg" width="885.558" height="557.519"><path d="M838.812 592.352c36.426-91.068 25.407-192.754-21.572-270.852l-491.774 68.092 471.276-98.217C598.12 43.69 211.53 207.976 248.794 520.695z" transform="translate(-157.221 -171.24)" fill="#e6e6e6"/><path fill="#6c3bb3" d="M76.753 320.445h626.526V515.54H76.753z"/><path d="M408.706 467.893c5.621 4.365 7.677 5.775 8.874 5.596 58 16.89 7.154 36.683-21.026 3.084z" transform="translate(-157.221 -171.24)" fill="#ffb8b8"/><path fill="#ffb8b8" d="M60.099 475.093v39.654l28.55-1.586-7.93-41.24-20.62 3.172zm158.614 0v39.654l-28.551-1.586 7.931-41.24 20.62 3.172z"/><path d="M288.696 441.722l42.826-1.586c98.794 103.57 61.432 79.948 58.687 222.06l-52.343-15.862 11.103-98.34c.006-.005 2.93-1.953.5-1.998-15.197 5.222-26.285-59.437-59.187-51.932-37.44-1.79-43.536 53.75-58.687 53.93l11.103 98.34-52.343 15.861c-5.86-156.165-34.583-120.887 58.688-222.06zM225.25 673.298s-6.344-12.689-14.275-6.344-26.964 25.378-26.964 25.378-45.998 20.62-17.448 33.31 52.343-17.448 52.343-17.448c27.194-5.671 42.88-9.302 28.458-38.964-8.188 3.543-19.774 7.644-22.114 4.068zm142.753 0s6.345-12.689 14.275-6.344 26.965 25.378 26.965 25.378 45.998 20.62 17.447 33.31-52.342-17.448-52.342-17.448c-27.194-5.671-42.88-9.302-28.458-38.964 8.187 3.543 19.774 7.644 22.113 4.068z" transform="translate(-157.221 -171.24)" fill="#2f2e41"/><path d="M331.522 262.488c-2.36 39.485-56.248 36.009-57.101 0 2.359-39.486 56.248-36.01 57.1 0z" transform="translate(-157.221 -171.24)" fill="#ffb8b8"/><path d="M290.282 283.108c13.876 41.937-18.884 19.105 26.965 52.342l17.447-34.895s-12.689-4.758-11.103-22.206z" transform="translate(-157.221 -171.24)" fill="#ffb8b8"/><path d="M375.934 306.9l-47.282-10.793c1.33 28.51-29.096 22.772-34.404 8.431l-45.205 26.154c18.973 70.667 14.165 73.583-11.103 118.96-9.644 8.806 4.778 13.853 17.333 9.035 9.576-5.91 14.44-11.163 24.7-9.826 48.485 10.096 88.848 12.478 95.236 8.534 2.286-3.272-.066-149.927.725-150.495z" transform="translate(-157.221 -171.24)" fill="#575a89"/><path d="M363.245 310.072c1.586 0 9.756-3.842 9.756-3.842 23.771-.4 39.723 159.497 41 164.042l-15.861 11.103-25.378-65.032z" transform="translate(-157.221 -171.24)" fill="#575a89"/><path d="M252.215 495.65c.81 5.987 2.19 73.211 26.272 41.81 3.16-22.91-7.582-29.75-10.41-44.982z" transform="translate(-157.221 -171.24)" fill="#ffb8b8"/><path d="M258.56 330.692l-4.86-2.695c-13.03-.428-8.924 34.062-14.436 59.32-4.503 29.424-3.221 61.87 2.062 105.247.462 15.918 28.973 5.89 33.095 4.673 0 0-9.517-65.032-4.759-76.135s-11.103-90.41-11.103-90.41z" transform="translate(-157.221 -171.24)" fill="#575a89"/><path d="M330.274 234.81a34.03 34.03 0 00-19.357-14.798l-5.918 4.735 2.3-5.522a31.326 31.326 0 00-5.849-.338l-5.325 6.846 2.204-6.612c-22.849 2.453-36.367 28.683-24.505 47.04 1.83-5.622 4.05-10.899 5.88-16.522a16.644 16.644 0 004.336.021l2.226-5.195.622 4.975c6.9-.6 17.135-1.92 23.676-3.13l-.636-3.816 3.806 3.171c2.004-.461 3.194-.88 3.096-1.2 4.865 7.844 9.686 12.853 14.55 20.696 1.847-11.063 5.108-20.259-1.106-30.35z" transform="translate(-157.221 -171.24)" fill="#2f2e41"/><path fill="#fff" d="M527.412 343.979h138.367v65.636H527.412z"/><path fill="#e6e6e6" d="M553.578 357.727h86.036v7.87h-86.036zm0 15.135h86.036v7.87h-86.036zm0 15.135h86.036v7.87h-86.036z"/><path fill="#fff" d="M406.916 359.57l-4.501-7.795-4.5-7.796-4.501 7.796-4.501 7.795h4.836v22.574h8.331V359.57h4.836z"/><circle cx="711.888" cy="483.133" r="37.06" fill="#3f3d56"/><circle cx="718.626" cy="483.133" r="16.424" fill="#e6e6e6"/><path fill="#3f3d56" d="M688.515 509.033l80.859 33.691-2.527 8.002-46.536-5.265-78.753-34.954 43.798 5.054 3.159-6.528z"/><path d="M917.21 712.447l100.565-329.887 24.49-43.491.087-.42c.079-.383 1.877-9.474-2.546-16.057a14.419 14.419 0 00-9.739-6.135c-13.516-2.534-43.754-3.782-45.034-3.834l-.241-.01-.24.032c-.826.113-20.15 2.938-24.519 19.813l-21.024 38.263-.083.273-95.177 312.905 5.238 1.593L944.08 372.86l21.095-38.393.085-.352c3.09-12.699 17.857-15.67 19.821-16.01 3.09.132 31.51 1.397 43.976 3.734a9.029 9.029 0 016.191 3.79c2.726 4.035 2.044 9.978 1.804 11.54l-24.34 43.225-.088.285-100.65 330.171z" transform="translate(-157.221 -171.24)" fill="#3f3d56"/><path transform="rotate(-79.762 786.663 420.07)" fill="#3f3d56" d="M965.006 374.708h5.475v73.805h-5.475z"/><path transform="rotate(-78.465 770.388 467.859)" fill="#3f3d56" d="M951.121 420.405h5.475v73.599h-5.475z"/><path transform="rotate(-74.032 736.48 558.639)" fill="#3f3d56" d="M925.909 503.385h5.475v73.23h-5.475z"/><path fill="#3f3d56" d="M784.589 511.372l1.996-5.099-68.336-26.758-3.356-36.334 63.782 23.823 20.663 29.898 4.505-3.112-21.642-31.314L708.64 435l4.468 48.382 71.481 27.99z"/><circle cx="808.329" cy="518.509" r="37.06" fill="#3f3d56"/><circle cx="818.015" cy="520.193" r="16.424" fill="#e6e6e6"/></svg>