<?xml version="1.0"?>
<svg xmlns="http://www.w3.org/2000/svg" xmlns:xlink="http://www.w3.org/1999/xlink" version="1.1" id="Capa_1" x="0px" y="0px" viewBox="0 0 486.4 486.4" style="enable-background:new 0 0 486.4 486.4;" xml:space="preserve" width="512px" height="512px" class=""><g><g><path style="fill:#3A2C51;" d="M427.886,255.216c0-8.882-6.792-15.673-15.673-15.673H259.135V187.82h-31.347v51.722H74.71  c-8.882,0-15.673,6.792-15.673,15.673v69.486h31.347V270.89h137.404v53.812h31.347V270.89h137.404v53.812h31.347V255.216z" data-original="#3A2C51"/><g>
	<path style="fill:#29B297" d="M313.469,193.045c8.882,0,15.673-6.792,15.673-15.673V21.682c0-8.882-6.792-15.673-15.673-15.673   H173.976c-8.882,0-15.673,6.792-15.673,15.673v155.69c0,8.882,6.792,15.673,15.673,15.673h53.812h31.347   C259.135,193.045,313.469,193.045,313.469,193.045z" data-original="#29B297" class="active-path" data-old_color="#4DCFE0"/>
	<path style="fill:#29B297" d="M470.727,319.478h-42.841h-31.347H358.4c-8.882,0-15.673,6.792-15.673,15.673v129.567   c0,8.882,6.792,15.673,15.673,15.673h112.327c8.882,0,15.673-6.792,15.673-15.673V335.151   C486.4,326.269,479.608,319.478,470.727,319.478z" data-original="#29B297" class="active-path" data-old_color="#4DCFE0"/>
	<path style="fill:#29B297" d="M15.673,319.478C6.792,319.478,0,326.269,0,335.151v129.567c0,8.882,6.792,15.673,15.673,15.673H128   c8.882,0,15.673-6.792,15.673-15.673V335.151c0-8.882-6.792-15.673-15.673-15.673H90.384H59.037H15.673z" data-original="#29B297" class="active-path" data-old_color="#4DCFE0"/>
	<path style="fill:#29B297" d="M187.037,319.478c-8.882,0-15.673,6.792-15.673,15.673v129.567c0,8.882,6.792,15.673,15.673,15.673   h112.327c8.882,0,15.673-6.792,15.673-15.673V335.151c0-8.882-6.792-15.673-15.673-15.673h-40.229h-31.347H187.037z" data-original="#29B297" class="active-path" data-old_color="#4DCFE0"/>
</g></g></g> </svg>
