<svg xmlns="http://www.w3.org/2000/svg" width="800" height="800" viewBox="0 0 200 200"><path fill="#fff" d="M0 0h200v200H0z"/><defs><linearGradient id="a" gradientUnits="userSpaceOnUse" x1="88" y1="88" x2="0" y2="0"><stop offset="0" stop-color="#176455"/><stop offset="1" stop-color="#249e86"/></linearGradient><linearGradient id="b" gradientUnits="userSpaceOnUse" x1="75" y1="76" x2="168" y2="160"><stop offset="0" stop-color="#898989"/><stop offset=".09" stop-color="#acacac"/><stop offset=".18" stop-color="#c2c2c2"/><stop offset=".31" stop-color="#d3d3d3"/><stop offset=".44" stop-color="#dfdfdf"/><stop offset=".59" stop-color="#e9e9e9"/><stop offset=".75" stop-color="#f0f0f0"/><stop offset="1" stop-color="#f5f5f5"/></linearGradient><filter id="c" x="0" y="0" width="200%" height="200%"><feGaussianBlur in="SourceGraphic" stdDeviation="12"/></filter></defs><path fill="url(#a)" d="M0 174V0h174z"/><path fill-opacity=".5" filter="url(#c)" d="M121.8 174C59.2 153.1 0 174 0 174s63.5-73.8 87-94c24.4-20.9 87-80 87-80s-66.1 104.4-52.2 174z"/><path fill="url(#b)" d="M142.7 142.7C59.2 142.7 0 174 0 174s42-66.3 74.9-99.3S174 0 174 0s-31.3 62.6-31.3 142.7z"/></svg>