<svg xmlns="http://www.w3.org/2000/svg" id="_x33_0" height="512" viewBox="0 0 64 64" width="512" class="hovered-paths"><path d="M28 18h.82a17.366 17.366 0 01-7.9 2c-.48-2.84-2.95-5-5.92-5-3.31 0-6 2.69-6 6 0 2.97 2.16 5.44 5 5.92V34h-1v-1.05c0-1.19-.71-2.25-1.8-2.7-.01 0-.03-.01-.04-.01a2.907 2.907 0 00-3.19.62l-.75.75-2.83-2.83.75-.75c.84-.84 1.08-2.1.62-3.19 0-.01-.01-.03-.01-.04a2.911 2.911 0 00-2.7-1.8H2v-4h1.05c1.19 0 2.25-.71 2.7-1.8 0-.01.01-.03.01-.04.46-1.09.22-2.35-.62-3.19l-.75-.75 2.83-2.83.75.75c.84.84 2.1 1.08 3.19.62.01 0 .03-.01.04-.01 1.09-.45 1.8-1.51 1.8-2.7V8h4v1.05c0 1.19.71 2.25 1.8 2.7.01 0 .03.01.04.01 1.09.46 2.35.22 3.19-.62l.75-.75 1.25 1.25A2.006 2.006 0 0026 14h2c-.55 0-1.05.22-1.41.59-.37.36-.59.86-.59 1.41 0 1.1.9 2 2 2zm34 25v4h-1.05c-1.19 0-2.25.71-2.7 1.8 0 .01-.01.03-.01.04-.46 1.09-.22 2.35.62 3.19l.75.75-2.83 2.83-.75-.75c-.84-.84-2.1-1.08-3.19-.62-.01 0-.03.01-.04.01-1.09.45-1.8 1.51-1.8 2.7V58h-4v-1.05c0-1.19-.71-2.25-1.8-2.7-.01 0-.03-.01-.04-.01a2.83 2.83 0 00-1.37-.22c.43-.52.85-1.05 1.24-1.6.47-.65.91-1.33 1.32-2.03h.01A6.005 6.005 0 0055 45c0-3-2.21-5.49-5.08-5.93.05-.67.08-1.35.08-2.04V32h1v1.05c0 1.19.71 2.25 1.8 2.7.01 0 .03.01.04.01 1.09.46 2.35.22 3.19-.62l.75-.75 2.83 2.83-.75.75c-.84.84-1.08 2.1-.62 3.19 0 .01.01.03.01.04.45 1.09 1.51 1.8 2.7 1.8z" fill="#fcd770" data-original="#FCD770"/><path d="M62 7v12c0 .55-.45 1-1 1h-6c-.55 0-1-.45-1-1V6h7c.55 0 1 .45 1 1z" fill="#ff826e" data-original="#FF826E"/><path d="M43.02 7.99c-.07-.11-.13-.22-.19-.33v-.02C42.32 6.64 41.3 6 40.17 6H37c-.83 0-1.58-.34-2.12-.88S34 3.83 34 3c0-.55.45-1 1-1h7.47c3.61 0 7.13 1.07 10.13 3.07L54 6v12c-1.23.99-2.58 1.8-4 2.43V19l-3.31.66c-1.12.23-2.27.34-3.42.34-1.71 0-3.41-.26-5.04-.75-1.05-.32-2.07-.74-3.05-1.25H40v-4.38a6.738 6.738 0 013.02-5.63z" fill="#f0d0b4" data-original="#F0D0B4"/><path d="M43.79 54.02A26.276 26.276 0 0132 62c-.31-.1-.61-.21-.91-.32.55-.36.91-.98.91-1.68 0-.55-.22-1.05-.59-1.41-.36-.37-.86-.59-1.41-.59h4a2.006 2.006 0 001.97-2.34A22.277 22.277 0 0046 37.03v-13.2c-.9.11-1.82.17-2.73.17-4 0-7.88-.9-11.27-3-3.39 2.1-7.27 3-11.27 3-.91 0-1.83-.06-2.73-.17v13.2c0 1.78.21 3.53.61 5.2v.01c-1.32.21-2.61.57-3.85 1.06-.5-2.02-.76-4.12-.76-6.27V19l3.31.66c1.12.23 2.27.34 3.42.34h.19c2.76-.03 5.47-.72 7.9-2h.01c.54-.29 1.06-.59 1.56-.93L32 16l1.61 1.07c.5.34 1.02.64 1.56.93h.01c.98.51 2 .93 3.05 1.25 1.63.49 3.33.75 5.04.75 1.15 0 2.3-.11 3.42-.34L50 19v18.03c0 .69-.03 1.37-.08 2.04-.31 4.07-1.56 7.93-3.57 11.32-.41.7-.85 1.38-1.32 2.03-.39.55-.81 1.08-1.24 1.6z" fill="#aab2bd" data-original="#AAB2BD"/><path d="M42.83 7.66c.06.11.12.22.19.33-.8.54-1.47 1.22-1.97 2.01H28c-1.1 0-2-.9-2-2 0-.55.22-1.05.59-1.41.36-.37.86-.59 1.41-.59h12.17c1.13 0 2.15.64 2.66 1.64zM28 10h13.05A6.738 6.738 0 0040 13.62V14H26a2.006 2.006 0 01-1.97-2.36c.08-.41.27-.77.56-1.05.36-.37.86-.59 1.41-.59zm12 4v4h-4.83c-.54-.29-1.06-.59-1.56-.93L32 16l-1.61 1.07c-.5.34-1.02.64-1.56.93H28c-1.1 0-2-.9-2-2 0-.55.22-1.05.59-1.41.36-.37.86-.59 1.41-.59zm-6 40c.55 0 1.05.22 1.41.59.29.28.49.65.56 1.07A2.006 2.006 0 0134 58h-4c.55 0 1.05.22 1.41.59.37.36.59.86.59 1.41 0 .7-.36 1.32-.91 1.68-.32.2-.69.32-1.09.32h-8.6c-4.14 0-8.16-1.41-11.4-4V46l1.4-.93c1.06-.71 2.19-1.3 3.36-1.77 1.24-.49 2.53-.85 3.85-1.06.96-.16 1.94-.24 2.92-.24H27c.55 0 1 .45 1 1 0 .83-.34 1.58-.88 2.12S25.83 46 25 46h9c.55 0 1.05.22 1.41.59.37.36.59.86.59 1.41 0 1.1-.9 2-2 2h2c.55 0 1.05.22 1.41.59.37.36.59.86.59 1.41 0 1.1-.9 2-2 2z" fill="#f0d0b4" data-original="#F0D0B4"/><path d="M43.27 24c-4 0-7.88-.9-11.27-3-3.39 2.1-7.27 3-11.27 3-.91 0-1.83-.06-2.73-.17v13.2c0 1.78.21 3.53.61 5.2v.01c.96-.16 1.94-.24 2.92-.24H27c.55 0 1 .45 1 1 0 .83-.34 1.58-.88 2.12S25.83 46 25 46h9c.55 0 1.05.22 1.41.59.37.36.59.86.59 1.41 0 1.1-.9 2-2 2h2c.55 0 1.05.22 1.41.59.37.36.59.86.59 1.41 0 1.1-.9 2-2 2h-2c.55 0 1.05.22 1.41.59.29.28.49.65.56 1.07A22.277 22.277 0 0046 37.03v-13.2c-.9.11-1.82.17-2.73.17z" fill="#29b297" data-original="#5CD6B3" class="hovered-path active-path" data-old_color="#5cd6b3"/><path d="M10 58v1c0 .55-.45 1-1 1H3c-.55 0-1-.45-1-1V47c0-.55.45-1 1-1h7z" fill="#ff826e" data-original="#FF826E"/><path d="M61 5h-6.697l-1.149-.767A19.2 19.2 0 0042.473 1H35c-1.103 0-2 .897-2 2 0 .732.212 1.41.556 2.001L28 5c-1.654 0-3 1.346-3 3 0 .395.081.77.22 1.116a2.982 2.982 0 00-1.429.871L22.78 8.976l-1.457 1.456c-.551.552-1.376.712-2.141.392A1.908 1.908 0 0118 9.055V7h-6v2.055c0 .778-.464 1.473-1.223 1.785a1.91 1.91 0 01-2.102-.408L7.22 8.976 2.976 13.22l1.455 1.456c.551.552.712 1.377.393 2.141A1.909 1.909 0 013.055 18H1v6h2.055c.778 0 1.473.465 1.786 1.222a1.919 1.919 0 01-.409 2.103L2.976 28.78l4.244 4.244 1.457-1.456c.551-.552 1.375-.712 2.14-.394A1.914 1.914 0 0112 32.945V35h1v2.026c0 1.914.213 3.821.609 5.685-.954.431-1.88.934-2.762 1.522L9.697 45H3c-1.103 0-2 .897-2 2v12c0 1.103.897 2 2 2h6a2 2 0 001.819-1.178A19.331 19.331 0 0021.403 63H30c.412 0 .805-.084 1.163-.235.173.061.345.125.52.183l.317.106.317-.105a27.266 27.266 0 0011.904-7.917c.195.02.393.06.596.144A1.909 1.909 0 0146 56.945V59h6v-2.055c0-.778.465-1.473 1.222-1.786a1.917 1.917 0 012.102.409l1.456 1.456 4.244-4.244-1.455-1.456c-.551-.552-.712-1.377-.393-2.141A1.909 1.909 0 0160.945 48H63v-6h-2.055c-.778 0-1.473-.465-1.786-1.222a1.919 1.919 0 01.409-2.103l1.455-1.456-4.244-4.244-1.457 1.456c-.551.552-1.375.712-2.141.392A1.906 1.906 0 0152 33.055V31h-1v-9.941c.753-.366 1.481-.78 2.18-1.24A2 2 0 0055 21h6c1.103 0 2-.897 2-2V7c0-1.103-.897-2-2-2zM28 7l9 .001V7h3.17c.603 0 1.148.279 1.521.743A7.721 7.721 0 0040.535 9H28a1.001 1.001 0 010-2zm6.166 9.242L32.303 15H39v2h-3.564a15.696 15.696 0 01-1.27-.758zM28.564 17H28a1.001 1.001 0 010-2h3.697l-1.862 1.242c-.412.275-.838.524-1.271.758zM26 11h13.465a7.743 7.743 0 00-.426 2H26a1.001 1.001 0 010-2zM11.548 29.313a3.911 3.911 0 00-4.287.841l-.041.042-1.416-1.416.042-.042c1.126-1.127 1.456-2.81.827-4.318A3.902 3.902 0 003.055 22H3v-2h.055c1.591 0 3.011-.95 3.631-2.452a3.912 3.912 0 00-.84-4.286l-.042-.042 1.416-1.416.042.042c1.128 1.129 2.811 1.457 4.318.827A3.902 3.902 0 0014 9.055V9h2v.055c0 1.591.95 3.012 2.451 3.631a3.907 3.907 0 004.287-.84l.042-.042.222.223a2.995 2.995 0 002.218 2.858c-.139.345-.22.72-.22 1.115 0 .838.347 1.595.903 2.14a16.546 16.546 0 01-4.215.808A6.973 6.973 0 0015 14c-3.86 0-7 3.141-7 7a6.973 6.973 0 005 6.704v2.632a4.016 4.016 0 00-1.452-1.023zM13 17.78v7.786a4.972 4.972 0 01-3-4.567c0-2.757 2.243-5 5-5a4.969 4.969 0 014.538 2.94 16.272 16.272 0 01-2.034-.258zM9 59H3V47h6zm21 2h-8.597A17.31 17.31 0 0111 57.494V46.535l.956-.638A17.203 17.203 0 0121.527 43H27a2 2 0 01-1.996 2h-3.01v2H34a1.001 1.001 0 010 2H22v2h14a1.001 1.001 0 010 2H22v2h12a1.001 1.001 0 010 2H22v2h8a1.001 1.001 0 010 2zM19 37.026V24.934a22.68 22.68 0 001.725.066c3.803 0 7.248-.779 10.275-2.304V45h-2.556A3.959 3.959 0 0029 43c0-1.103-.897-2-2-2h-5.473c-.714 0-1.421.052-2.124.13A21.45 21.45 0 0119 37.026zm19.987 14.843a2.992 2.992 0 00-2.207-2.753c.139-.346.22-.721.22-1.116 0-1.654-1.346-3-3-3h-1V22.696C36.027 24.222 39.472 25 43.275 25c.572 0 1.149-.022 1.725-.066v12.093a21.26 21.26 0 01-6.013 14.842zm-6.045 8.705A3.02 3.02 0 0033 60c0-.352-.072-.686-.184-1H34a2.995 2.995 0 002.982-2.825A23.238 23.238 0 0047 37.026V22.69l-1.126.144c-.863.11-1.738.166-2.599.166-4.079 0-7.695-.959-10.749-2.851L32 19.823l-.526.326C28.42 22.041 24.804 23 20.725 23a20.65 20.65 0 01-2.599-.166L17 22.69v14.336c0 1.485.148 2.965.426 4.417-.653.142-1.295.325-1.93.535A25.443 25.443 0 0115 37.026V20.22l2.113.423c1.187.237 2.403.357 3.612.357 3.648 0 7.182-1.069 10.219-3.094L32 17.202l1.056.704A18.36 18.36 0 0043.275 21c1.209 0 2.425-.12 3.613-.357L49 20.22v16.807a25.274 25.274 0 01-16.058 23.547zM50.779 40.34C52.668 41.069 54 42.913 54 45c0 2.757-2.243 5-5 5-.412 0-.813-.052-1.204-.149a27.262 27.262 0 002.983-9.511zm1.672-3.654a3.907 3.907 0 004.287-.84l.042-.042 1.416 1.416-.042.042c-1.126 1.127-1.456 2.81-.827 4.318A3.902 3.902 0 0060.945 44H61v2h-.055c-1.591 0-3.011.95-3.631 2.452a3.912 3.912 0 00.84 4.286l.042.042-1.416 1.416-.042-.042c-1.128-1.128-2.811-1.459-4.319-.827A3.903 3.903 0 0050 56.945V57h-2v-.055c0-1.574-.931-2.977-2.407-3.609.412-.554.802-1.123 1.172-1.707A6.925 6.925 0 0049 52c3.86 0 7-3.141 7-7 0-3.118-2.118-5.857-5.05-6.716.019-.419.05-.835.05-1.258v-1.363c.39.434.88.787 1.451 1.023zm-5.955-18.004c-1.82.363-3.679.39-5.496.134v-5.191c0-1.624.684-3.145 1.854-4.228A5.187 5.187 0 0046.613 11H47V9h-.387a3.212 3.212 0 01-2.892-1.802A3.947 3.947 0 0040.17 5h-3.174A2 2 0 0135 3h7.473c3.418 0 6.728 1.002 9.571 2.897l.956.638V17.5c-.636.481-1.304.917-2 1.306V17.78zM61 19h-6V7h6z" data-original="#000000"/><path d="M47.825 13.264a6.729 6.729 0 00-4.774 4.42l1.897.633a4.738 4.738 0 013.362-3.113l.932-.233-.485-1.939zM1 39h2v2H1zm4 0h2v2H5zm4 0h2v2H9zm44-14h2v2h-2zm4 0h2v2h-2zm4 0h2v2h-2z" data-original="#000000"/></svg>