<?xml version="1.0"?>
<svg xmlns="http://www.w3.org/2000/svg" height="512px" viewBox="0 0 64 64" width="512px" class=""><g><g id="shopping-smartphone-home-house-hand"><path d="m58 23.79v33.21h-52v-33.21l24.97-15.03a2 2 0 0 1 2.06 0z" fill="#e0e0e2" data-original="#E0E0E2" class=""/><rect fill="#46f8ff" height="30" rx="2" width="16" x="24" y="21" data-original="#46F8FF" class="" style="fill:#6C3BB3" data-old_color="#46f8ff"/><path d="m24 34h12v10h-12z" fill="#c0ab91" data-original="#C0AB91" class=""/><path d="m60.41 20.05a1.991 1.991 0 0 1 .76 2.61l-.2.41a1.992 1.992 0 0 1 -2.82.81l-.15-.09-24.97-15.03a2 2 0 0 0 -2.06 0l-24.97 15.03-.15.09a1.992 1.992 0 0 1 -2.82-.81l-.2-.41a1.991 1.991 0 0 1 .76-2.61l27.38-16.43a2 2 0 0 1 2.06 0z" fill="#ff3051" data-original="#FF3051" class="" style="fill:#6C3BB3" data-old_color="#ff3051"/><path d="m58 23.79v33.21h-4v-33.21l-24-14.45.97-.58a2 2 0 0 1 2.06 0z" fill="#c6c5ca" data-original="#C6C5CA" class=""/><path d="m61.17 22.66-.2.41a1.992 1.992 0 0 1 -2.82.81l-1.15-.69-.07-.05a.251.251 0 0 0 .04-.07l.2-.41a1.991 1.991 0 0 0 -.76-2.61l-3.41-2.05-8.01-4.8-14.99-9 .97-.58a2 2 0 0 1 2.06 0l15.96 9.58 8.01 4.8 3.41 2.05a1.991 1.991 0 0 1 .76 2.61z" fill="#cd2a00" data-original="#CD2A00" class="" style="fill:#593291" data-old_color="#cd2a00"/><path d="m59 57a2.006 2.006 0 0 1 2 2 2.015 2.015 0 0 1 -2 2h-54a2.006 2.006 0 0 1 -2-2 2.015 2.015 0 0 1 2-2z" fill="#806749" data-original="#806749" class=""/><path d="m57 36v11h-17v-18a2.006 2.006 0 0 1 2-2 2.015 2.015 0 0 1 2 2v5a2.006 2.006 0 0 0 2 2z" fill="#ffc477" data-original="#FFC477" class=""/><path d="m46 36h-2a2.006 2.006 0 0 1 -2-2v-5a1.955 1.955 0 0 0 -.59-1.41 1.813 1.813 0 0 0 -.41-.32 2 2 0 0 1 1-.27 2.015 2.015 0 0 1 2 2v5a2.006 2.006 0 0 0 2 2z" fill="#ffa733" data-original="#FFA733" class=""/><path d="m40 23v26a2.006 2.006 0 0 1 -2 2h-4a2.006 2.006 0 0 0 2-2v-26a2.006 2.006 0 0 0 -2-2h4a2.006 2.006 0 0 1 2 2z" fill="#00d7df" data-original="#00D7DF" class="active-path" style="fill:#542C8D" data-old_color="#00d7df"/><path d="m36 34v10h-9.27a2 2 0 0 0 -1.73-1 2.015 2.015 0 0 0 2-2 2.006 2.006 0 0 0 -2-2 2.015 2.015 0 0 0 2-2 2.006 2.006 0 0 0 -2-2 1.955 1.955 0 0 0 1.41-.59 1.813 1.813 0 0 0 .32-.41z" fill="#c0ab91" data-original="#C0AB91" class=""/><path d="m27 33a2 2 0 0 1 -.27 1 1.813 1.813 0 0 1 -.32.41 1.955 1.955 0 0 1 -1.41.59h-2a2.006 2.006 0 0 1 -2-2 2.015 2.015 0 0 1 2-2h2a2.006 2.006 0 0 1 2 2z" fill="#ffc477" data-original="#FFC477" class=""/><path d="m26.73 44a2 2 0 0 1 .27 1 2.015 2.015 0 0 1 -2 2h-2a2.006 2.006 0 0 1 -2-2 2.015 2.015 0 0 1 2-2h2a2 2 0 0 1 1.73 1z" fill="#ffc477" data-original="#FFC477" class=""/><path d="m25 35a2.006 2.006 0 0 1 2 2 2.015 2.015 0 0 1 -2 2h-2a2.006 2.006 0 0 1 -2-2 2.015 2.015 0 0 1 2-2z" fill="#ffc477" data-original="#FFC477" class=""/><path d="m25 39a2.006 2.006 0 0 1 2 2 2.015 2.015 0 0 1 -2 2h-2a2.006 2.006 0 0 1 -2-2 2.015 2.015 0 0 1 2-2z" fill="#ffc477" data-original="#FFC477" class=""/><g fill="#ffa733"><path d="m27 33a2 2 0 0 1 -.27 1 1.813 1.813 0 0 1 -.32.41 1.955 1.955 0 0 1 -1.41.59h-2a1.679 1.679 0 0 1 -.5-.07 1.894 1.894 0 0 0 .91-.52 1.813 1.813 0 0 0 .32-.41 1.99 1.99 0 0 0 -1.23-2.93 1.679 1.679 0 0 1 .5-.07h2a2.006 2.006 0 0 1 2 2z" data-original="#FFA733" class=""/><path d="m27 45a2.015 2.015 0 0 1 -2 2h-2a1.679 1.679 0 0 1 -.5-.07 1.894 1.894 0 0 0 .91-.52 1.955 1.955 0 0 0 .59-1.41 2 2 0 0 0 -.27-1 1.966 1.966 0 0 0 -1.23-.93 1.679 1.679 0 0 1 .5-.07h2a2 2 0 0 1 2 2z" data-original="#FFA733" class=""/><path d="m27 37a2.015 2.015 0 0 1 -2 2h-2a1.679 1.679 0 0 1 -.5-.07 1.894 1.894 0 0 0 .91-.52 1.955 1.955 0 0 0 .59-1.41 2 2 0 0 0 -1.5-1.93 1.679 1.679 0 0 1 .5-.07h2a2.006 2.006 0 0 1 2 2z" data-original="#FFA733" class=""/><path d="m27 41a2.015 2.015 0 0 1 -2 2h-2a1.679 1.679 0 0 1 -.5-.07 1.894 1.894 0 0 0 .91-.52 1.955 1.955 0 0 0 .59-1.41 2 2 0 0 0 -1.5-1.93 1.679 1.679 0 0 1 .5-.07h2a2.006 2.006 0 0 1 2 2z" data-original="#FFA733" class=""/><path d="m54 36h3v11h-3z" data-original="#FFA733" class=""/></g><path d="m60.02 25.05a2.971 2.971 0 0 0 1.84-1.54l.21-.41a3.022 3.022 0 0 0 -1.14-3.91l-27.39-16.43a2.988 2.988 0 0 0 -3.08 0l-27.39 16.43a3.022 3.022 0 0 0 -1.14 3.91l.21.41a2.971 2.971 0 0 0 1.84 1.54 3.045 3.045 0 0 0 .84.12 3.033 3.033 0 0 0 1.18-.27v31.1h-1a3 3 0 0 0 0 6h54a3 3 0 0 0 0-6h-1v-31.09a2.928 2.928 0 0 0 2.02.14zm-1.02 32.95a1 1 0 0 1 0 2h-54a1 1 0 0 1 0-2zm-13-21h10v9h-15v-17a1 1 0 0 1 2 0v5a3.009 3.009 0 0 0 3 3zm0-2a1 1 0 0 1 -1-1v-5a2.98 2.98 0 0 0 -4-2.82v-3.18a3.009 3.009 0 0 0 -3-3h-12a3.009 3.009 0 0 0 -3 3v7a3.009 3.009 0 0 0 -3 3 2.974 2.974 0 0 0 .78 2 2.954 2.954 0 0 0 0 4 2.954 2.954 0 0 0 0 4 2.974 2.974 0 0 0 -.78 2 3.009 3.009 0 0 0 3 3v1a3.009 3.009 0 0 0 3 3h12a3.009 3.009 0 0 0 3-3v-1h15v8h-48v-32.24l23.48-14.14a1.02 1.02 0 0 1 1.04 0l23.48 14.14v11.24zm-23 1h2a1 1 0 0 1 0 2h-2a1 1 0 0 1 0-2zm-1-3a1 1 0 0 1 1-1h2a1 1 0 0 1 0 2h-2a1 1 0 0 1 -1-1zm1 7h2a1 1 0 0 1 0 2h-2a1 1 0 0 1 0-2zm0 4h2a1 1 0 0 1 0 2h-2a1 1 0 0 1 0-2zm2 4a3.009 3.009 0 0 0 3-3h8a1 1 0 0 0 1-1v-10a1 1 0 0 0 -1-1h-1a3.99 3.99 0 0 0 -7.58-1.75 2.956 2.956 0 0 0 -2.42-1.25v-7a1 1 0 0 1 1-1h12a1 1 0 0 1 1 1v26a1 1 0 0 1 -1 1h-12a1 1 0 0 1 -1-1zm2.22-9a2.954 2.954 0 0 0 0-4h7.78v8h-7.78a2.954 2.954 0 0 0 0-4zm1.78-6a2 2 0 0 1 4 0zm4.55-25.09a2.979 2.979 0 0 0 -3.1 0l-25.11 15.12a1.018 1.018 0 0 1 -.8.1.972.972 0 0 1 -.61-.51l-.21-.41a1.021 1.021 0 0 1 .38-1.31l27.39-16.43a1 1 0 0 1 1.02 0l27.39 16.43a1.021 1.021 0 0 1 .38 1.31l-.21.41a.972.972 0 0 1 -.61.51 1.018 1.018 0 0 1 -.8-.1z" data-original="#000000" class=""/></g></g> </svg>
