<svg xmlns="http://www.w3.org/2000/svg" height="512" viewBox="0 0 64 64" width="512"><g id="shopping-smartphone-home-house-hand"><path d="M58 23.79V57H6V23.79L30.97 8.76a2 2 0 012.06 0z" fill="#e0e0e2" data-original="#E0E0E2"/><rect fill="#6c3bb3" height="30" rx="2" width="16" x="24" y="21" data-original="#46F8FF" data-old_color="#46f8ff"/><path d="M24 34h12v10H24z" fill="#c0ab91" data-original="#C0AB91"/><path d="M60.41 20.05a1.991 1.991 0 01.76 2.61l-.2.41a1.992 1.992 0 01-2.82.81l-.15-.09L33.03 8.76a2 2 0 00-2.06 0L6 23.79l-.15.09a1.992 1.992 0 01-2.82-.81l-.2-.41a1.991 1.991 0 01.76-2.61L30.97 3.62a2 2 0 012.06 0z" fill="#6c3bb3" data-original="#FF3051" data-old_color="#ff3051"/><path d="M58 23.79V57h-4V23.79L30 9.34l.97-.58a2 2 0 012.06 0z" fill="#c6c5ca" data-original="#C6C5CA"/><path d="M61.17 22.66l-.2.41a1.992 1.992 0 01-2.82.81L57 23.19l-.07-.05a.251.251 0 00.04-.07l.2-.41a1.991 1.991 0 00-.76-2.61L53 18l-8.01-4.8L30 4.2l.97-.58a2 2 0 012.06 0l15.96 9.58L57 18l3.41 2.05a1.991 1.991 0 01.76 2.61z" fill="#593291" data-original="#CD2A00" data-old_color="#cd2a00"/><path d="M59 57a2.006 2.006 0 012 2 2.015 2.015 0 01-2 2H5a2.006 2.006 0 01-2-2 2.015 2.015 0 012-2z" fill="#806749" data-original="#806749"/><path d="M57 36v11H40V29a2.006 2.006 0 012-2 2.015 2.015 0 012 2v5a2.006 2.006 0 002 2z" fill="#ffc477" data-original="#FFC477"/><path d="M46 36h-2a2.006 2.006 0 01-2-2v-5a1.955 1.955 0 00-.59-1.41 1.813 1.813 0 00-.41-.32 2 2 0 011-.27 2.015 2.015 0 012 2v5a2.006 2.006 0 002 2z" fill="#ffa733" data-original="#FFA733"/><path d="M40 23v26a2.006 2.006 0 01-2 2h-4a2.006 2.006 0 002-2V23a2.006 2.006 0 00-2-2h4a2.006 2.006 0 012 2z" fill="#542c8d" data-original="#00D7DF" class="active-path" data-old_color="#00d7df"/><path d="M36 34v10h-9.27A2 2 0 0025 43a2.015 2.015 0 002-2 2.006 2.006 0 00-2-2 2.015 2.015 0 002-2 2.006 2.006 0 00-2-2 1.955 1.955 0 001.41-.59 1.813 1.813 0 00.32-.41z" fill="#c0ab91" data-original="#C0AB91"/><path d="M27 33a2 2 0 01-.27 1 1.813 1.813 0 01-.32.41A1.955 1.955 0 0125 35h-2a2.006 2.006 0 01-2-2 2.015 2.015 0 012-2h2a2.006 2.006 0 012 2zm-.27 11a2 2 0 01.27 1 2.015 2.015 0 01-2 2h-2a2.006 2.006 0 01-2-2 2.015 2.015 0 012-2h2a2 2 0 011.73 1z" fill="#ffc477" data-original="#FFC477"/><path d="M25 35a2.006 2.006 0 012 2 2.015 2.015 0 01-2 2h-2a2.006 2.006 0 01-2-2 2.015 2.015 0 012-2zm0 4a2.006 2.006 0 012 2 2.015 2.015 0 01-2 2h-2a2.006 2.006 0 01-2-2 2.015 2.015 0 012-2z" fill="#ffc477" data-original="#FFC477"/><g fill="#ffa733"><path d="M27 33a2 2 0 01-.27 1 1.813 1.813 0 01-.32.41A1.955 1.955 0 0125 35h-2a1.679 1.679 0 01-.5-.07 1.894 1.894 0 00.91-.52 1.813 1.813 0 00.32-.41 1.99 1.99 0 00-1.23-2.93A1.679 1.679 0 0123 31h2a2.006 2.006 0 012 2zm0 12a2.015 2.015 0 01-2 2h-2a1.679 1.679 0 01-.5-.07 1.894 1.894 0 00.91-.52A1.955 1.955 0 0024 45a2 2 0 00-.27-1 1.966 1.966 0 00-1.23-.93A1.679 1.679 0 0123 43h2a2 2 0 012 2z" data-original="#FFA733"/><path d="M27 37a2.015 2.015 0 01-2 2h-2a1.679 1.679 0 01-.5-.07 1.894 1.894 0 00.91-.52A1.955 1.955 0 0024 37a2 2 0 00-1.5-1.93A1.679 1.679 0 0123 35h2a2.006 2.006 0 012 2z" data-original="#FFA733"/><path d="M27 41a2.015 2.015 0 01-2 2h-2a1.679 1.679 0 01-.5-.07 1.894 1.894 0 00.91-.52A1.955 1.955 0 0024 41a2 2 0 00-1.5-1.93A1.679 1.679 0 0123 39h2a2.006 2.006 0 012 2zm27-5h3v11h-3z" data-original="#FFA733"/></g><path d="M60.02 25.05a2.971 2.971 0 001.84-1.54l.21-.41a3.022 3.022 0 00-1.14-3.91L33.54 2.76a2.988 2.988 0 00-3.08 0L3.07 19.19a3.022 3.022 0 00-1.14 3.91l.21.41a2.971 2.971 0 001.84 1.54 3.045 3.045 0 00.84.12A3.033 3.033 0 006 24.9V56H5a3 3 0 000 6h54a3 3 0 000-6h-1V24.91a2.928 2.928 0 002.02.14zM59 58a1 1 0 010 2H5a1 1 0 010-2zM46 37h10v9H41V29a1 1 0 012 0v5a3.009 3.009 0 003 3zm0-2a1 1 0 01-1-1v-5a2.98 2.98 0 00-4-2.82V23a3.009 3.009 0 00-3-3H26a3.009 3.009 0 00-3 3v7a3.009 3.009 0 00-3 3 2.974 2.974 0 00.78 2 2.954 2.954 0 000 4 2.954 2.954 0 000 4 2.974 2.974 0 00-.78 2 3.009 3.009 0 003 3v1a3.009 3.009 0 003 3h12a3.009 3.009 0 003-3v-1h15v8H8V23.76L31.48 9.62a1.02 1.02 0 011.04 0L56 23.76V35zm-23 1h2a1 1 0 010 2h-2a1 1 0 010-2zm-1-3a1 1 0 011-1h2a1 1 0 010 2h-2a1 1 0 01-1-1zm1 7h2a1 1 0 010 2h-2a1 1 0 010-2zm0 4h2a1 1 0 010 2h-2a1 1 0 010-2zm2 4a3.009 3.009 0 003-3h8a1 1 0 001-1V34a1 1 0 00-1-1h-1a3.99 3.99 0 00-7.58-1.75A2.956 2.956 0 0025 30v-7a1 1 0 011-1h12a1 1 0 011 1v26a1 1 0 01-1 1H26a1 1 0 01-1-1zm2.22-9a2.954 2.954 0 000-4H35v8h-7.78a2.954 2.954 0 000-4zM29 33a2 2 0 014 0zm4.55-25.09a2.979 2.979 0 00-3.1 0L5.34 23.03a1.018 1.018 0 01-.8.1.972.972 0 01-.61-.51l-.21-.41a1.021 1.021 0 01.38-1.31L31.49 4.47a1 1 0 011.02 0L59.9 20.9a1.021 1.021 0 01.38 1.31l-.21.41a.972.972 0 01-.61.51 1.018 1.018 0 01-.8-.1z" data-original="#000000"/></g></svg>