<svg xmlns="http://www.w3.org/2000/svg" version="1.1" id="Capa_1" x="0" y="0" viewBox="0 0 480 480" xml:space="preserve" width="512" height="512"><path d="M368 224H32L8 200v160h256v-16h19.4c1.88-6.64 4.48-12.968 7.784-18.872l-13.696-13.696 33.944-33.944 13.696 13.696c5.904-3.304 12.232-5.904 18.872-7.784V264h48v-64l-24 24z" data-original="#29B297" data-old_color="#6ACCEF" fill="#29b297"/><path d="M444.816 325.128l13.696-13.696-33.944-33.944-13.696 13.696c-5.904-3.304-12.232-5.904-18.872-7.784V264h-48v19.4c-6.64 1.88-12.968 4.48-18.872 7.784l-13.696-13.696-33.944 33.944 13.696 13.696c-3.304 5.904-5.904 12.232-7.784 18.872H264v48h19.4c1.88 6.64 4.48 12.968 7.784 18.872l-13.696 13.696 33.944 33.944 13.696-13.696c5.904 3.304 12.232 5.904 18.872 7.784V472h48v-19.4c6.64-1.88 12.968-4.48 18.872-7.784l13.696 13.696 33.944-33.944-13.696-13.696c3.304-5.904 5.904-12.232 7.784-18.872H472v-48h-19.4c-1.88-6.64-4.48-12.968-7.784-18.872zM368 416c-26.512 0-48-21.488-48-48s21.488-48 48-48 48 21.488 48 48-21.488 48-48 48z" data-original="#E8EAEA" data-old_color="#E05346" fill="#e8eaea"/><path d="M152 40h96v48h32V40c0-17.672-14.328-32-32-32h-96c-17.672 0-32 14.328-32 32v48h32V40z" data-original="#E8EAEA" data-old_color="#FCAC37" fill="#e8eaea"/><path data-original="#29B297" data-old_color="#6ACCEF" fill="#29b297" d="M176 224v-32h48v32h144l24-24V88H8v112l24 24z"/><path data-original="#E8EAEA" data-old_color="#FCAC37" fill="#e8eaea" d="M176 224h48v32h-48zm0-32h48v32h-48z"/><path data-original="#1E8E78" data-old_color="#5DB2D1" fill="#1e8e78" d="M392 200l-24 24H224v32h168zm-216 56v-32H32L8 200v56z"/><path d="M472 336h-13.544a96.997 96.997 0 00-3.848-9.344l9.56-9.568a7.991 7.991 0 000-11.312l-33.936-33.936a7.991 7.991 0 00-11.312 0l-9.568 9.56a94.656 94.656 0 00-9.344-3.848V88c0-4.416-3.584-8-8-8H288V40c0-22.056-17.944-40-40-40h-96c-22.056 0-40 17.944-40 40v40H8c-4.416 0-8 3.584-8 8v272c0 4.416 3.584 8 8 8h248v24c0 4.416 3.584 8 8 8h13.544a96.997 96.997 0 003.848 9.344l-9.56 9.568a7.991 7.991 0 000 11.312l33.936 33.936a7.991 7.991 0 0011.312 0l9.568-9.56a94.656 94.656 0 009.344 3.848V472c0 4.416 3.584 8 8 8h48c4.416 0 8-3.584 8-8v-13.544a96.997 96.997 0 009.344-3.848l9.568 9.56a7.991 7.991 0 0011.312 0l33.936-33.936a7.991 7.991 0 000-11.312l-9.56-9.568a94.656 94.656 0 003.848-9.344H472c4.416 0 8-3.584 8-8v-48c0-4.424-3.584-8.008-8-8.008zM128 40c0-13.232 10.768-24 24-24h96c13.232 0 24 10.768 24 24v40h-16V40c0-4.416-3.584-8-8-8h-96c-4.416 0-8 3.584-8 8v40h-16V40zm32 40V48h80v32h-80zM16 96h368v100.688L364.688 216H232v-24c0-4.416-3.584-8-8-8h-48c-4.416 0-8 3.584-8 8v24H35.312L16 196.688V96zm168 136h32v16h-32v-16zm0-16v-16h32v16h-32zM16 352V219.312l10.344 10.344A7.979 7.979 0 0032 232h136v24c0 4.416 3.584 8 8 8h48c4.416 0 8-3.584 8-8v-24h136c2.12 0 4.16-.84 5.656-2.344L384 219.312V256h-40c-4.416 0-8 3.584-8 8v13.544a96.997 96.997 0 00-9.344 3.848l-9.568-9.56a7.991 7.991 0 00-11.312 0l-33.936 33.936a7.991 7.991 0 000 11.312l9.56 9.568a94.656 94.656 0 00-3.848 9.344H264c-4.416 0-8 3.584-8 8v8H16V352zm448 32h-11.4a8.002 8.002 0 00-7.696 5.816c-1.72 6.064-4.096 11.832-7.072 17.16a8.009 8.009 0 001.328 9.56l8.032 8.04-22.624 22.624-8.04-8.032a8.009 8.009 0 00-9.56-1.328c-5.32 2.976-11.096 5.352-17.16 7.072A7.987 7.987 0 00384 452.6V464h-32v-11.4a8.002 8.002 0 00-5.816-7.696c-6.064-1.72-11.832-4.096-17.16-7.072a8.009 8.009 0 00-9.56 1.328l-8.04 8.032-22.624-22.624 8.032-8.04a8.007 8.007 0 001.328-9.56c-2.976-5.32-5.352-11.096-7.072-17.16A7.987 7.987 0 00283.4 384H272v-32h11.4a8.002 8.002 0 007.696-5.816c1.72-6.064 4.096-11.832 7.072-17.16a8.009 8.009 0 00-1.328-9.56l-8.032-8.04 22.624-22.624 8.04 8.032a7.995 7.995 0 009.56 1.328c5.32-2.976 11.096-5.352 17.16-7.072A7.987 7.987 0 00352 283.4V272h32v11.4a8.002 8.002 0 005.816 7.696c6.064 1.72 11.832 4.096 17.16 7.072 3.12 1.752 7.024 1.2 9.56-1.328l8.04-8.032 22.624 22.624-8.032 8.04a8.007 8.007 0 00-1.328 9.56c2.976 5.32 5.352 11.096 7.072 17.16A7.987 7.987 0 00452.6 352H464v32z" data-original="#31324D" class="active-path" fill="#31324d"/><path d="M368 312c-30.88 0-56 25.12-56 56s25.12 56 56 56 56-25.12 56-56-25.12-56-56-56zm0 96c-22.056 0-40-17.944-40-40s17.944-40 40-40 40 17.944 40 40-17.944 40-40 40zM32 320h16v16H32zm32 0h16v16H64zm32 0h16v16H96z" data-original="#31324D" class="active-path" fill="#31324d"/></svg>