<?xml version="1.0" encoding="iso-8859-1"?>
<!-- Generator: Adobe Illustrator 19.0.0, SVG Export Plug-In . SVG Version: 6.00 Build 0)  -->
<svg version="1.1" id="Layer_1" xmlns="http://www.w3.org/2000/svg" xmlns:xlink="http://www.w3.org/1999/xlink" x="0px" y="0px"
	 viewBox="0 0 512.002 512.002" style="enable-background:new 0 0 512.002 512.002;" xml:space="preserve">
<circle style="fill:#000;" cx="256.001" cy="256" r="256"/>

<path style="fill:#FFFFFF;" d="M376.023,109.468H135.979c-14.643,0-26.51,11.867-26.51,26.51V376.02
	c0,14.639,11.867,26.51,26.51,26.51h240.042c14.639,0,26.51-11.871,26.51-26.51V135.978
	C402.533,121.335,390.662,109.468,376.023,109.468L376.023,109.468z M200.155,362.517c0,4.263-3.453,7.716-7.716,7.716h-32.837
	c-4.263,0-7.716-3.455-7.716-7.716V224.856c0-4.263,3.455-7.716,7.716-7.716h32.839c4.263,0,7.716,3.455,7.716,7.716v137.661
	H200.155z M176.02,204.162c-17.23,0-31.196-13.969-31.196-31.201c0-17.229,13.965-31.196,31.196-31.196
	c17.232,0,31.198,13.969,31.198,31.196C207.218,190.195,193.251,204.162,176.02,204.162L176.02,204.162z M371.773,363.139
	c0,3.918-3.175,7.096-7.09,7.096h-35.242c-3.915,0-7.092-3.177-7.092-7.096v-64.574c0-9.63,2.826-42.21-25.172-42.21
	c-21.719,0-26.124,22.3-27.008,32.304v74.478c0,3.918-3.175,7.096-7.094,7.096h-34.082c-3.918,0-7.096-3.177-7.096-7.096V224.234
	c0-3.918,3.177-7.096,7.096-7.096h34.082c3.918,0,7.094,3.177,7.094,7.096v12.009c8.054-12.085,20.023-21.416,45.502-21.416
	c56.425,0,56.105,52.717,56.105,81.686v66.627H371.773z"/>
<g>
</g>
<g>
</g>
<g>
</g>
<g>
</g>
<g>
</g>
<g>
</g>
<g>
</g>
<g>
</g>
<g>
</g>
<g>
</g>
<g>
</g>
<g>
</g>
<g>
</g>
<g>
</g>
<g>
</g>
</svg>
