<svg xmlns="http://www.w3.org/2000/svg" version="1.1" id="Capa_1" x="0" y="0" viewBox="0 0 486.4 486.4" xml:space="preserve" width="512" height="512"><path d="M427.886 255.216c0-8.882-6.792-15.673-15.673-15.673H259.135V187.82h-31.347v51.722H74.71c-8.882 0-15.673 6.792-15.673 15.673v69.486h31.347V270.89h137.404v53.812h31.347V270.89h137.404v53.812h31.347v-69.486z" data-original="#3A2C51" fill="#3a2c51"/><path d="M313.469 193.045c8.882 0 15.673-6.792 15.673-15.673V21.682c0-8.882-6.792-15.673-15.673-15.673H173.976c-8.882 0-15.673 6.792-15.673 15.673v155.69c0 8.882 6.792 15.673 15.673 15.673h139.493zm157.258 126.433H358.4c-8.882 0-15.673 6.792-15.673 15.673v129.567c0 8.882 6.792 15.673 15.673 15.673h112.327c8.882 0 15.673-6.792 15.673-15.673V335.151c0-8.882-6.792-15.673-15.673-15.673zm-455.054 0C6.792 319.478 0 326.269 0 335.151v129.567c0 8.882 6.792 15.673 15.673 15.673H128c8.882 0 15.673-6.792 15.673-15.673V335.151c0-8.882-6.792-15.673-15.673-15.673H15.673zm171.364 0c-8.882 0-15.673 6.792-15.673 15.673v129.567c0 8.882 6.792 15.673 15.673 15.673h112.327c8.882 0 15.673-6.792 15.673-15.673V335.151c0-8.882-6.792-15.673-15.673-15.673H187.037z" data-original="#29B297" class="active-path" data-old_color="#4DCFE0" fill="#29b297"/></svg>