<svg xmlns="http://www.w3.org/2000/svg" height="512" viewBox="0 0 512.005 512" width="512"><path d="M8.025 8.029H256v495.95H8.025zm0 0" fill="#29b297" data-original="#91E8ED" data-old_color="#91e8ed"/><path d="M451.316 344.44c0-4.132-.207-8.221-.593-12.252l28.048-25.6a159.224 159.224 0 00-7.441-22.821l-37.746-4.238a128.8 128.8 0 00-14.401-19.799l7.632-37.195a161.196 161.196 0 00-19.447-14.175l-33.036 18.71a126.505 126.505 0 00-23.302-7.582l-15.694-34.582h-23.998l-15.694 34.582a126.134 126.134 0 00-23.294 7.581l-29.228-16.541-75.234 96.03 27.997 25.598a130.87 130.87 0 00-.582 12.253c-.008 4.14.187 8.226.582 12.257l-27.997 25.595a158.45 158.45 0 007.433 22.814l37.746 4.207a128.163 128.163 0 0014.4 19.798l-7.624 37.196a160.804 160.804 0 0019.448 14.178l33.035-18.705a127.13 127.13 0 0023.295 7.585l15.702 34.645h23.997l15.694-34.575a127.194 127.194 0 0023.302-7.58l30.892 17.486 72.184-98.225-26.677-24.388c.394-4.03.601-8.12.601-12.257zM323.33 408.434c-35.344 0-63.993-28.65-63.993-63.994 0-35.34 28.65-63.993 63.993-63.993 35.344 0 63.994 28.653 63.994 63.993 0 35.344-28.65 63.994-63.994 63.994zm0 0" fill="#6c3bb3" data-original="#00C3FF" data-old_color="#00c3ff"/><g fill="#ffea00"><path d="M8.025 56.024h79.992V88.02H8.025zm0 79.992h79.992v31.997H8.025zM391.88 421.01L223.899 304.879l29.926-37.66L421.808 383.35zm0 0" data-original="#FFEA00" class="active-path" data-old_color="#FFEA00" fill="#e8eaea"/><path d="M442.981 492.426a60.715 60.715 0 0033.599-10.093l-41.742-30.567 28.837-39.364 39.5 28.92c.53-3.27.796-6.578.8-9.89 0-33.684-27.31-60.994-60.994-60.994s-60.994 27.31-60.994 60.994c0 33.688 27.31 60.994 60.994 60.994zM203.005 195.455a60.75 60.75 0 00-33.598 10.097l41.742 30.563-28.837 39.375-39.492-28.927a62.079 62.079 0 00-.8 9.886c0 33.688 27.309 60.994 60.993 60.994 33.688 0 60.994-27.306 60.994-60.994 0-33.684-27.306-60.994-60.994-60.994zm0 0" data-original="#FFEA00" class="active-path" data-old_color="#FFEA00" fill="#e8eaea"/></g><path d="M48.02 319.998h16v143.985h-16zm31.998 0h15.998v143.985H80.018zm31.996 0h15.999v143.985h-15.999zm31.997 111.988h15.999v31.997h-16zm31.997 0h15.998v31.997h-15.998zm0 0" fill="#fff" data-original="#FFF"/><path d="M482.802 375.191l-23.799-21.744c.2-3.046.305-6.054.305-8.999 0-2.94-.106-5.948-.305-8.991l28.654-26.189-10.734-32.946-38.543-4.32a137.264 137.264 0 00-10.557-14.51l7.784-37.996-28.048-20.44-33.747 19.112a134.952 134.952 0 00-17.111-5.601l-16.198-35.7h-34.34l-16.198 35.7a134.952 134.952 0 00-17.111 5.6l-8.855-5.006V.03H.026v511.948h263.973v-36.246l8.863-5.023a134.841 134.841 0 0017.103 5.601l16.198 35.668h34.325l16.197-35.703a135.56 135.56 0 0017.112-5.597l27.47 15.557c23.267 17.83 55.287 18.931 79.726 2.746l9.6-6.336-44.557-32.63 19.384-26.461 43.523 31.883 2.121-12.838c4.293-26.037-6.683-52.234-28.255-67.431zm-210.94-139.185l3.663-1.601a119.694 119.694 0 0121.83-7.105l3.906-.863 15.198-33.524h13.686l15.198 33.524 3.905.863a119.792 119.792 0 0121.83 7.105l3.664 1.6 32.313-18.294a157.146 157.146 0 0110.898 7.944l-7.465 36.395 2.649 2.992a119.98 119.98 0 0113.51 18.565l2.031 3.433 36.934 4.12c1.597 4.184 2.96 8.445 4.152 12.75l-27.384 25.063.386 4c.368 3.902.551 7.772.551 11.503 0 3.726-.183 7.596-.55 11.502l-.387 4 2.89 2.644c-.8 0-1.511-.117-2.289-.117a69.014 69.014 0 00-28.47 6.144l-19.998-13.846c4.086-27.056-7.592-54.073-30.098-69.63a71.642 71.642 0 00-75.77-3.574l-17.877-12.358a67.348 67.348 0 00-2.64-35.325zm107.454 108.243l-75.458-52.163a55.664 55.664 0 0151.448 6.234 55.67 55.67 0 0124.01 45.929zM16.024 16.028h231.977v47.995H96.016V48.025H16.024zm0 47.995h63.994v15.999H16.024zm0 31.997h79.992V80.022h151.985v63.993H96.016v-15.998H16.024zm0 47.995h63.994v15.999H16.024zM248.001 495.98H16.024V176.012h79.992v-15.998h151.985v44.081l-.488-.27c-23.342-19.837-56.987-21.853-82.527-4.944l-9.6 6.335 44.557 32.63-19.385 26.462-43.507-31.888-2.117 12.839a68.721 68.721 0 0027.708 67.024l-.152.176 25.15 22.99c-.192 3.02-.297 6.027-.297 8.991 0 2.969.105 5.984.297 8.992l-28.654 26.188 1.13 4.602a168.057 168.057 0 007.803 23.997l1.808 4.375 38.559 4.296a137.264 137.264 0 0010.558 14.51l-7.785 37.997 3.61 3.074a171.044 171.044 0 0020.411 14.87l4 2.495 8.92-5.058zm126.788-43.093l-3.664 1.601a118.786 118.786 0 01-21.83 7.1l-3.906.876-15.22 33.516h-13.687l-15.197-33.516-3.93-.883a118.613 118.613 0 01-21.822-7.1l-3.663-1.602-32.318 18.303a157.001 157.001 0 01-10.9-7.945l7.463-36.395-2.648-2.992a120.36 120.36 0 01-13.51-18.556l-2.031-3.441-36.934-4.121c-1.602-4.175-2.953-8.437-4.152-12.749l27.43-25.072-.386-4a124.23 124.23 0 01-.543-11.502c0-3.785.184-7.648.543-11.503l.387-4-4-3.663c.91 0 1.813.137 2.742.137a69.132 69.132 0 0027.997-5.937l21.182 14.647a73.141 73.141 0 00-.8 10.288 71.686 71.686 0 0035.28 62.064 71.675 71.675 0 0071.388.808l17.135 11.84a67.376 67.376 0 00-1 9.112c-.086 1.12-.152 2.199-.152 3.198 0 2.227.129 4.426.336 6.601.058.649.168 1.27.25 1.902.18 1.57.414 3.121.703 4.656.129.64.281 1.274.426 1.914.34 1.562.734 3.101 1.183 4.613.16.512.312 1.023.48 1.527.215.691.391 1.387.63 2.059zM267.343 344.643l75.45 52.144a55.646 55.646 0 01-75.45-52.151zm194.613 56.577l-38.285 52.268 37.742 27.646a52.925 52.925 0 01-51.674-8.488c-1.067-.855-2.059-1.77-3.043-2.687-.613-.586-1.23-1.168-1.824-1.785-1-1.039-1.977-2.097-2.879-3.199-.64-.8-1.222-1.601-1.816-2.402-.473-.648-.96-1.297-1.406-1.968a35.299 35.299 0 01-1.602-2.688c-.398-.68-.8-1.359-1.152-2.062a56.49 56.49 0 01-1.336-2.77 78.193 78.193 0 01-.976-2.335 51.62 51.62 0 01-1-2.726c-.305-.93-.55-1.848-.797-2.777-.25-.926-.465-1.672-.648-2.52-.25-1.152-.426-2.327-.602-3.495-.097-.68-.23-1.352-.312-2.04a55.189 55.189 0 01-.32-5.733c0-1.144.16-2.312.242-3.472.27-2.547.726-5.488 1.168-8 .175-.753.254-1.503.453-2.257l1.464-5.437-161.136-111.376-4.304 2.297a52.979 52.979 0 01-49.772.016 52.987 52.987 0 01-27.818-41.277l33.684 24.712 38.309-52.26-37.742-27.638a52.88 52.88 0 0154.326 10.577 52.878 52.878 0 0115.131 53.233l-1.519 5.472L413.344 387.19l4.327-2.402a53.016 53.016 0 0178.023 41.07zm0 0" data-original="#000000"/></svg>