<svg height="512" viewBox="0 0 128 128" width="512" xmlns="http://www.w3.org/2000/svg"><path d="M6.306 27.554h67.68v53.313H6.306z" fill="#6C3BB3"/><path d="M121.694 80.867V59.844l-12.986-2.633L95.88 35.416H73.986v45.451z" fill="#29B297"/><path d="M82.064 27.554h6.099v7.862h-6.099z" fill="#6C3BB3"/><path d="M113.38 65.979h8.314v6.741h-8.314zm-13.114-23.111H82.064v14.343h26.644z" fill="#dfeef4"/><path d="M6.306 80.867h115.387V93.06H6.306z" fill="#29B297"/><circle cx="29.86" cy="86.936" fill="#6d7a84" r="13.51"/><circle cx="98.14" cy="86.936" fill="#6d7a84" r="13.51"/><circle cx="29.86" cy="86.936" fill="#dfeef4" r="5.028"/><circle cx="98.14" cy="86.936" fill="#dfeef4" r="5.028"/><path d="M6.307 53.107a1.751 1.751 0 001.75-1.75V29.3h52.194a1.75 1.75 0 000-3.5H6.307a1.749 1.749 0 00-1.75 1.75v23.8a1.75 1.75 0 001.75 1.757zm0 13.155a1.75 1.75 0 001.75-1.75v-4.5a1.75 1.75 0 10-3.5 0v4.5a1.749 1.749 0 001.75 1.75zm115.734-8.134L109.82 55.65 97.388 34.528a1.749 1.749 0 00-1.508-.862h-5.967v-6.112a1.75 1.75 0 00-1.75-1.75h-6.1a1.75 1.75 0 00-1.75 1.75v6.112h-4.577v-6.112a1.749 1.749 0 00-1.75-1.75h-6.057a1.75 1.75 0 000 3.5h4.307v49.813h-29.3a15.217 15.217 0 00-26.159 0h-8.72V72.75a1.75 1.75 0 00-3.5 0v20.31a1.75 1.75 0 001.75 1.75h10.506a15.216 15.216 0 0026.093 0h42.188a15.216 15.216 0 0026.093 0h10.506a1.75 1.75 0 001.75-1.75V59.844a1.751 1.751 0 00-1.402-1.716zm-2.1 12.842h-4.811v-3.241h4.813zm-14.3-15.51H83.813V44.618h15.452zM83.813 29.3h2.6v4.362h-2.6zm-8.077 7.862h19.143l2.326 3.952H82.063a1.75 1.75 0 00-1.75 1.75V57.21a1.75 1.75 0 001.75 1.75h26.468l11.412 2.314v2.955h-6.563a1.751 1.751 0 00-1.75 1.75v6.741a1.75 1.75 0 001.75 1.75h6.563v4.647h-8.723a15.217 15.217 0 00-26.159 0h-9.325zM8.057 91.31v-8.693h7.175a15.1 15.1 0 00.014 8.693zm21.8 7.386a11.76 11.76 0 1111.76-11.759A11.772 11.772 0 0129.859 98.7zm14.616-7.386a15.1 15.1 0 00.014-8.693h39.026a15.1 15.1 0 00.014 8.693zm53.668 7.39A11.76 11.76 0 11109.9 86.937 11.772 11.772 0 0198.141 98.7zm21.8-7.386h-7.189a15.1 15.1 0 00.014-8.693h7.175z"/><path d="M29.859 80.158a6.778 6.778 0 106.779 6.779 6.786 6.786 0 00-6.779-6.779zm0 10.056a3.278 3.278 0 113.279-3.277 3.281 3.281 0 01-3.279 3.277zm68.282-10.056a6.778 6.778 0 106.777 6.779 6.787 6.787 0 00-6.777-6.779zm0 10.056a3.278 3.278 0 113.277-3.277 3.282 3.282 0 01-3.277 3.277zM86.069 65.75a1.75 1.75 0 100-3.5h-4.006a1.75 1.75 0 100 3.5zM16.121 34.036a1.75 1.75 0 100 3.5h17.342a1.75 1.75 0 000-3.5zm24.279 0a1.75 1.75 0 000 3.5h3.594a1.75 1.75 0 000-3.5z"/></svg>