<svg id="Capa_1" height="512" width="512" xmlns="http://www.w3.org/2000/svg"><path clip-rule="evenodd" d="M25.495 116.828L252 92.356l234.505 24.472v294.003c0 2.476-2.025 4.496-4.506 4.496H29.973c-2.453 0-4.477-2.02-4.477-4.496V116.828z" fill="#e8eaea" fill-rule="evenodd"/><path clip-rule="evenodd" d="M150.152 176.813a87.001 87.001 0 00-22.444 9.277l-6.474-6.459c-3.08-3.073-8.156-3.073-11.236 0l-18.765 18.724c-3.109 3.102-3.109 8.138 0 11.211l6.474 6.488a84.084 84.084 0 00-9.297 22.366h-9.155c-4.392 0-7.957 3.585-7.957 7.939v26.492c0 4.354 3.565 7.939 7.957 7.939h9.155a84.084 84.084 0 009.297 22.366l-6.474 6.488c-3.109 3.073-3.109 8.11 0 11.211l18.765 18.724c3.08 3.073 8.156 3.073 11.236 0l6.474-6.459a87.037 87.037 0 0022.444 9.277v9.134c0 4.354 3.565 7.939 7.957 7.939h26.551c4.363 0 7.928-3.585 7.928-7.939v-9.134c7.985-2.049 15.543-5.179 22.444-9.277l6.474 6.459c3.109 3.073 8.156 3.073 11.236 0l18.765-18.724c3.109-3.102 3.109-8.138 0-11.211l-6.474-6.488a84.084 84.084 0 009.297-22.366h9.183c4.363 0 7.928-3.585 7.928-7.939v-26.492c0-4.354-3.565-7.939-7.928-7.939h-9.183a84.084 84.084 0 00-9.297-22.366l6.474-6.488c3.109-3.073 3.109-8.11 0-11.211l-18.765-18.724c-3.08-3.073-8.128-3.073-11.236 0l-6.474 6.459a86.631 86.631 0 00-22.444-9.277v-9.134c0-4.354-3.565-7.911-7.928-7.911h-26.551c-4.392 0-7.957 3.557-7.957 7.911z" fill="#737a93" fill-rule="evenodd"/><path clip-rule="evenodd" d="M120.692 259.618c0 27.915 22.701 50.566 50.678 50.566 28.006 0 50.678-22.651 50.678-50.566 0-27.943-22.673-50.594-50.678-50.594-27.977 0-50.678 22.651-50.678 50.594z" fill="#e8eaea" fill-rule="evenodd"/><path clip-rule="evenodd" d="M188.253 251.907c0 21.086-3.451 40.805-9.411 57.736 24.441-3.614 43.206-24.643 43.206-50.025 0-23.732-16.37-43.651-38.444-49.114 2.995 12.833 4.649 26.805 4.649 41.403z" fill="#d4d6d8" fill-rule="evenodd"/><path clip-rule="evenodd" d="M183.605 210.504c22.074 5.463 38.444 25.382 38.444 49.114 0 25.382-18.765 46.411-43.206 50.025-6.702 18.895-16.57 34.261-28.405 44.021.941 3.329 4.021 5.805 7.672 5.805h26.551c4.363 0 7.928-3.585 7.928-7.939v-9.134c10.638-2.703 15.115-7.398 19.707-7.74 2.652-.199 5.333 1.024 9.212 4.923 3.109 3.073 8.156 3.073 11.236 0l18.765-18.724c3.109-3.102 3.109-8.138 0-11.211l-6.474-6.488a84.084 84.084 0 009.297-22.366h9.183c4.363 0 7.928-3.585 7.928-7.939v-26.492c0-4.354-3.565-7.939-7.928-7.939h-9.183a84.084 84.084 0 00-9.297-22.366l6.474-6.488c3.109-3.073 3.109-8.11 0-11.211l-18.765-18.724c-3.08-3.073-8.128-3.073-11.236 0l-6.474 6.459a86.631 86.631 0 00-22.444-9.277v-9.134c0-4.325-3.536-7.882-7.871-7.911h-24.726c10.521 12.634 18.792 30.248 23.612 50.736z" fill="#606b82" fill-rule="evenodd"/><path clip-rule="evenodd" d="M426.672 158.601H315.733c-4.335 0-7.9 3.557-7.9 7.882v35.484c0 4.354 3.565 7.882 7.9 7.882h110.939c4.363 0 7.928-3.528 7.928-7.882v-35.484c0-4.325-3.565-7.882-7.928-7.882z" fill="#6C3BB3" fill-rule="evenodd"/><path clip-rule="evenodd" d="M120.407 64.442H25.495c-9.896 0-17.995 8.081-17.995 17.955v16.476c0 9.874 8.099 17.955 17.995 17.955h461.009c9.896 0 17.995-8.081 17.995-17.955V82.397c0-9.874-8.099-17.955-17.995-17.955h-94.94z" fill="#29B297" fill-rule="evenodd"/><path clip-rule="evenodd" d="M486.505 64.442h-36.191c9.896 0 17.995 8.081 17.995 17.955v16.476c0 9.874-8.099 17.955-17.995 17.955h36.191c9.896 0 17.995-8.081 17.995-17.955V82.397c0-9.874-8.099-17.955-17.995-17.955z" fill="#208672" fill-rule="evenodd"/><path clip-rule="evenodd" d="M450.314 116.828v294.003c0 2.476-2.025 4.496-4.506 4.496h36.191c2.481 0 4.506-2.02 4.506-4.496V116.828z" fill="#d4d6d8" fill-rule="evenodd"/><path clip-rule="evenodd" d="M426.672 158.601H389.94c4.363 0 7.9 3.557 7.9 7.882v35.484c0 4.354-3.536 7.882-7.9 7.882h36.732c4.363 0 7.928-3.528 7.928-7.882v-35.484c0-4.325-3.565-7.882-7.928-7.882z" fill="#4d2980" fill-rule="evenodd"/><path d="M307.833 255.907h70.87c4.142 0 7.5-3.357 7.5-7.5s-3.358-7.5-7.5-7.5h-70.87c-4.142 0-7.5 3.357-7.5 7.5s3.358 7.5 7.5 7.5zm126.767-15h-15.885c-4.142 0-7.5 3.357-7.5 7.5s3.358 7.5 7.5 7.5H434.6c4.142 0 7.5-3.357 7.5-7.5s-3.358-7.5-7.5-7.5zm0 36.594h-74.264c-4.142 0-7.5 3.357-7.5 7.5s3.358 7.5 7.5 7.5H434.6c4.142 0 7.5-3.357 7.5-7.5s-3.358-7.5-7.5-7.5zm-126.767 15h22.501c4.142 0 7.5-3.357 7.5-7.5s-3.358-7.5-7.5-7.5h-22.501c-4.142 0-7.5 3.357-7.5 7.5s3.358 7.5 7.5 7.5zM434.6 314.066h-33.139c-4.142 0-7.5 3.357-7.5 7.5s3.358 7.5 7.5 7.5H434.6c4.142 0 7.5-3.357 7.5-7.5s-3.358-7.5-7.5-7.5zm-126.767 15h63.626c4.142 0 7.5-3.357 7.5-7.5s-3.358-7.5-7.5-7.5h-63.626c-4.142 0-7.5 3.357-7.5 7.5s3.358 7.5 7.5 7.5zM434.6 350.66h-75.632c-4.142 0-7.5 3.357-7.5 7.5s3.358 7.5 7.5 7.5H434.6c4.142 0 7.5-3.357 7.5-7.5s-3.358-7.5-7.5-7.5zm-126.767 15h21.133c4.142 0 7.5-3.357 7.5-7.5s-3.358-7.5-7.5-7.5h-21.133c-4.142 0-7.5 3.357-7.5 7.5s3.358 7.5 7.5 7.5zm-91.624-191.34l-2.499 2.493a94.068 94.068 0 00-13.622-5.631v-3.504c0-8.498-6.921-15.411-15.428-15.411h-26.551c-8.523 0-15.457 6.913-15.457 15.411v3.506a94.514 94.514 0 00-13.618 5.634l-2.503-2.497c-6.019-6.007-15.812-6.005-21.832-.001l-18.766 18.724a15.334 15.334 0 00-4.534 10.962c.009 4.128 1.628 7.996 4.522 10.857l2.489 2.494a91.575 91.575 0 00-5.64 13.562h-3.519c-8.523 0-15.457 6.926-15.457 15.439v26.492c0 8.513 6.934 15.438 15.457 15.438h3.519a91.575 91.575 0 005.64 13.562l-2.454 2.46a15.255 15.255 0 00-4.558 10.893 15.327 15.327 0 004.534 10.961l18.766 18.724c6.02 6.006 15.814 6.005 21.831 0l2.504-2.498a94.628 94.628 0 0013.618 5.634v3.506c0 8.514 6.934 15.439 15.457 15.439h26.551c8.507 0 15.428-6.926 15.428-15.439v-3.501a93.09 93.09 0 0013.63-5.627l2.516 2.51c6.033 5.965 15.815 5.955 21.807-.023l18.766-18.724a15.331 15.331 0 004.534-10.961c-.009-4.128-1.628-7.996-4.522-10.856l-2.49-2.496a91.486 91.486 0 005.64-13.562h3.547c8.507 0 15.428-6.926 15.428-15.438V246.36c0-8.514-6.921-15.439-15.428-15.439h-3.547a91.62 91.62 0 00-5.64-13.562l2.454-2.459a15.255 15.255 0 004.558-10.893 15.33 15.33 0 00-4.534-10.962L238.04 174.32c-5.992-5.977-15.774-5.987-21.831 0zm30.131 29.651c0 .158-.074.23-.141.297l-6.474 6.487a7.501 7.501 0 00-1.133 9.139 76.592 76.592 0 018.47 20.373 7.5 7.5 0 007.269 5.652h9.183c.212 0 .428.222.428.439v26.492c0 .217-.216.438-.428.438h-9.183a7.5 7.5 0 00-7.269 5.652 76.608 76.608 0 01-8.469 20.372 7.501 7.501 0 001.132 9.139l6.51 6.524a.338.338 0 01.104.261c0 .179-.097.276-.129.308l-18.766 18.724c-.145.145-.474.166-.642 0l-6.474-6.459a7.504 7.504 0 00-9.126-1.14c-6.311 3.747-13.201 6.594-20.48 8.461a7.5 7.5 0 00-5.636 7.265v9.134c0 .222-.212.439-.428.439h-26.551a.473.473 0 01-.457-.439v-9.134a7.5 7.5 0 00-5.636-7.265 79.56 79.56 0 01-20.51-8.479 7.489 7.489 0 00-3.795-1.032 7.492 7.492 0 00-5.299 2.19l-6.475 6.46c-.152.154-.488.153-.641-.001l-18.766-18.724a.41.41 0 01-.128-.308c0-.157.073-.229.14-.296l6.474-6.488a7.501 7.501 0 001.132-9.14 76.564 76.564 0 01-8.47-20.372 7.5 7.5 0 00-7.269-5.652h-9.154a.472.472 0 01-.457-.438v-26.492c0-.203.2-.439.457-.439h9.154a7.5 7.5 0 007.269-5.652 76.605 76.605 0 018.47-20.372 7.501 7.501 0 00-1.133-9.14l-6.51-6.522a.338.338 0 01-.104-.262c0-.179.097-.276.128-.308l18.766-18.724c.153-.152.488-.152.642 0l6.474 6.459a7.496 7.496 0 009.095 1.158 79.54 79.54 0 0120.51-8.479 7.5 7.5 0 005.636-7.265v-9.134c0-.194.188-.411.457-.411h26.551c.22 0 .428.2.428.411v9.134a7.5 7.5 0 005.636 7.265 79.014 79.014 0 0120.5 8.473 7.502 7.502 0 009.106-1.151l6.449-6.436c.192-.189.52-.17.666-.023l18.766 18.724c.034.03.131.128.131.307z"/><path d="M171.37 201.524c-32.08 0-58.178 26.048-58.178 58.065 0 32.033 26.099 58.094 58.178 58.094s58.178-26.061 58.178-58.094c0-32.017-26.098-58.065-58.178-58.065zm0 101.16c-23.809 0-43.178-19.332-43.178-43.094 0-23.746 19.37-43.065 43.178-43.065s43.178 19.319 43.178 43.065c0 23.762-19.369 43.094-43.178 43.094z"/><path d="M486.504 56.941h-93.509L278.129 11.508c-13.252-5.224-31.04-5.223-44.265.003l-114.886 45.43H25.496C11.437 56.941 0 68.361 0 82.397v16.476c0 11.431 7.586 21.125 17.996 24.33v287.628c0 6.614 5.373 11.996 11.978 11.996h218.513v20.351c-13.544 3.363-23.614 15.611-23.614 30.17 0 17.127 13.958 31.062 31.114 31.062 17.172 0 31.142-13.935 31.142-31.062 0-14.562-10.082-26.811-23.642-30.172v-20.349H482c6.62 0 12.006-5.382 12.006-11.996V123.203C504.414 119.998 512 110.304 512 98.873V82.397c0-14.036-11.437-25.456-25.496-25.456zM272.128 473.348c0 8.856-7.241 16.062-16.142 16.062-8.885 0-16.114-7.205-16.114-16.062 0-8.871 7.229-16.089 16.114-16.089 8.901 0 16.142 7.218 16.142 16.089zm-32.75-447.887c9.774-3.863 23.448-3.862 33.242-.001l79.592 31.481H159.769zM497 98.873c0 5.765-4.708 10.455-10.496 10.455H261.319c-4.142 0-7.5 3.357-7.5 7.5s3.358 7.5 7.5 7.5h217.686v283.499H32.996V124.328h193.501c4.142 0 7.5-3.357 7.5-7.5s-3.358-7.5-7.5-7.5H25.496c-5.787 0-10.496-4.69-10.496-10.455V82.397c0-5.766 4.708-10.456 10.496-10.456h366.025l.042.002.026-.002h94.915c5.787 0 10.496 4.69 10.496 10.456z"/><path d="M315.733 217.35h38.672c4.142 0 7.5-3.357 7.5-7.5s-3.358-7.5-7.5-7.5h-38.672c-.206 0-.4-.186-.4-.382v-35.484c0-.167.194-.383.4-.383h110.939c.23 0 .428.211.428.383v35.484c0 .203-.2.382-.428.382h-37.445c-4.142 0-7.5 3.357-7.5 7.5s3.358 7.5 7.5 7.5h37.445c8.507 0 15.428-6.9 15.428-15.382v-35.484c0-8.482-6.921-15.383-15.428-15.383H315.733c-8.492 0-15.4 6.9-15.4 15.383v35.484c0 8.481 6.908 15.382 15.4 15.382z"/></svg>