<?xml version="1.0"?>
<svg xmlns="http://www.w3.org/2000/svg" xmlns:xlink="http://www.w3.org/1999/xlink" version="1.1" id="Capa_1" x="0px" y="0px" viewBox="0 0 480 480" style="enable-background:new 0 0 480 480;" xml:space="preserve" width="512px" height="512px" class=""><g><g><path style="fill:#29B297" d="M368,224H32L8,200v160h256v-16h19.4c1.88-6.64,4.48-12.968,7.784-18.872l-13.696-13.696  l33.944-33.944l13.696,13.696c5.904-3.304,12.232-5.904,18.872-7.784V264h48v-64L368,224z" data-original="#29B297" class="" data-old_color="#6ACCEF"/><path style="fill:#E8EAEA" d="M444.816,325.128l13.696-13.696l-33.944-33.944l-13.696,13.696  c-5.904-3.304-12.232-5.904-18.872-7.784V264h-48v19.4c-6.64,1.88-12.968,4.48-18.872,7.784l-13.696-13.696l-33.944,33.944  l13.696,13.696c-3.304,5.904-5.904,12.232-7.784,18.872H264v16v32h19.4c1.88,6.64,4.48,12.968,7.784,18.872l-13.696,13.696  l33.944,33.944l13.696-13.696c5.904,3.304,12.232,5.904,18.872,7.784V472h48v-19.4c6.64-1.88,12.968-4.48,18.872-7.784  l13.696,13.696l33.944-33.944l-13.696-13.696c3.304-5.904,5.904-12.232,7.784-18.872H472v-48h-19.4  C450.72,337.36,448.12,331.032,444.816,325.128z M368,416c-26.512,0-48-21.488-48-48s21.488-48,48-48s48,21.488,48,48  S394.512,416,368,416z" data-original="#E8EAEA" class="" data-old_color="#E05346"/><path style="fill:#E8EAEA" d="M152,40h96v48h32V40c0-17.672-14.328-32-32-32h-96c-17.672,0-32,14.328-32,32v48h32V40z" data-original="#E8EAEA" class="" data-old_color="#FCAC37"/><polygon style="fill:#29B297" points="176,224 176,192 224,192 224,224 368,224 392,200 392,88 280,88 248,88 152,88 120,88 8,88   8,200 32,224 " data-original="#29B297" class="" data-old_color="#6ACCEF"/><g>
	<rect x="176" y="224" style="fill:#E8EAEA" width="48" height="32" data-original="#E8EAEA" class="" data-old_color="#FCAC37"/>
	<rect x="176" y="192" style="fill:#E8EAEA" width="48" height="32" data-original="#E8EAEA" class="" data-old_color="#FCAC37"/>
</g><g>
	<polygon style="fill:#1E8E78" points="392,200 368,224 224,224 224,256 392,256  " data-original="#1E8E78" class="" data-old_color="#5DB2D1"/>
	<polygon style="fill:#1E8E78" points="176,256 176,224 32,224 8,200 8,256  " data-original="#1E8E78" class="" data-old_color="#5DB2D1"/>
</g><g>
	<path style="fill:#31324D" d="M472,336h-13.544c-1.128-3.2-2.416-6.328-3.848-9.344l9.56-9.568c3.128-3.128,3.128-8.184,0-11.312   l-33.936-33.936c-3.128-3.128-8.184-3.128-11.312,0l-9.568,9.56c-3.024-1.44-6.152-2.728-9.344-3.848V264v-64V88   c0-4.416-3.584-8-8-8H288V40c0-22.056-17.944-40-40-40h-96c-22.056,0-40,17.944-40,40v40H8c-4.416,0-8,3.584-8,8v112v160   c0,4.416,3.584,8,8,8h248v24c0,4.416,3.584,8,8,8h13.544c1.128,3.2,2.416,6.328,3.848,9.344l-9.56,9.568   c-3.128,3.128-3.128,8.184,0,11.312l33.936,33.936c3.128,3.128,8.184,3.128,11.312,0l9.568-9.56   c3.024,1.44,6.152,2.728,9.344,3.848V472c0,4.416,3.584,8,8,8h48c4.416,0,8-3.584,8-8v-13.544c3.2-1.128,6.328-2.416,9.344-3.848   l9.568,9.56c3.128,3.128,8.184,3.128,11.312,0l33.936-33.936c3.128-3.128,3.128-8.184,0-11.312l-9.56-9.568   c1.44-3.024,2.728-6.152,3.848-9.344H472c4.416,0,8-3.584,8-8v-48C480,339.584,476.416,336,472,336z M128,40   c0-13.232,10.768-24,24-24h96c13.232,0,24,10.768,24,24v40h-16V40c0-4.416-3.584-8-8-8h-96c-4.416,0-8,3.584-8,8v40h-16V40z    M160,80V48h80v32H160z M16,96h104h32h96h32h104v100.688L364.688,216H232v-24c0-4.416-3.584-8-8-8h-48c-4.416,0-8,3.584-8,8v24   H35.312L16,196.688V96z M184,232h32v16h-32V232z M184,216v-16h32v16H184z M16,352V219.312l10.344,10.344   C27.84,231.16,29.88,232,32,232h136v24c0,4.416,3.584,8,8,8h48c4.416,0,8-3.584,8-8v-24h136c2.12,0,4.16-0.84,5.656-2.344   L384,219.312V256h-40c-4.416,0-8,3.584-8,8v13.544c-3.2,1.128-6.328,2.416-9.344,3.848l-9.568-9.56   c-3.128-3.128-8.184-3.128-11.312,0l-33.936,33.936c-3.128,3.128-3.128,8.184,0,11.312l9.56,9.568   c-1.44,3.024-2.728,6.152-3.848,9.344H264c-4.416,0-8,3.584-8,8v8H16V352z M464,384h-11.4c-3.576,0-6.72,2.376-7.696,5.816   c-1.72,6.064-4.096,11.832-7.072,17.16c-1.744,3.128-1.2,7.024,1.328,9.56l8.032,8.04L424.568,447.2l-8.04-8.032   c-2.528-2.528-6.44-3.072-9.56-1.328c-5.32,2.976-11.096,5.352-17.16,7.072c-3.432,0.968-5.808,4.112-5.808,7.688V464h-32v-11.4   c0-3.576-2.376-6.72-5.816-7.696c-6.064-1.72-11.832-4.096-17.16-7.072c-3.128-1.744-7.024-1.2-9.56,1.328l-8.04,8.032   L288.8,424.568l8.032-8.04c2.528-2.528,3.072-6.432,1.328-9.56c-2.976-5.32-5.352-11.096-7.072-17.16   c-0.968-3.432-4.112-5.808-7.688-5.808H272v-24v-8h11.4c3.576,0,6.72-2.376,7.696-5.816c1.72-6.064,4.096-11.832,7.072-17.16   c1.744-3.128,1.2-7.024-1.328-9.56l-8.032-8.04l22.624-22.624l8.04,8.032c2.528,2.528,6.432,3.08,9.56,1.328   c5.32-2.976,11.096-5.352,17.16-7.072c3.432-0.968,5.808-4.112,5.808-7.688V272h32v11.4c0,3.576,2.376,6.72,5.816,7.696   c6.064,1.72,11.832,4.096,17.16,7.072c3.12,1.752,7.024,1.2,9.56-1.328l8.04-8.032l22.624,22.624l-8.032,8.04   c-2.528,2.528-3.072,6.432-1.328,9.56c2.976,5.32,5.352,11.096,7.072,17.16c0.968,3.432,4.112,5.808,7.688,5.808H464V384z" data-original="#31324D" class="active-path"/>
	<path style="fill:#31324D" d="M368,312c-30.88,0-56,25.12-56,56s25.12,56,56,56s56-25.12,56-56S398.88,312,368,312z M368,408   c-22.056,0-40-17.944-40-40s17.944-40,40-40s40,17.944,40,40S390.056,408,368,408z" data-original="#31324D" class="active-path"/>
	<rect x="32" y="320" style="fill:#31324D" width="16" height="16" data-original="#31324D" class="active-path"/>
	<rect x="64" y="320" style="fill:#31324D" width="16" height="16" data-original="#31324D" class="active-path"/>
	<rect x="96" y="320" style="fill:#31324D" width="16" height="16" data-original="#31324D" class="active-path"/>
</g></g></g> </svg>
